<svg width="36" height="36" viewBox="0 0 36 36" fill="none" xmlns="http://www.w3.org/2000/svg">
<path d="M33.8285 16.7237C33.8283 15.7923 33.8187 15.4535 33.7649 15.2202L33.7389 15.1254C33.6798 14.9379 33.5927 14.7612 33.4806 14.6014L33.3611 14.4469C33.2361 14.3028 33.0695 14.1771 32.6142 13.8917L32.0542 13.5466L30.9208 12.8574C30.4935 12.5974 30.0949 12.365 29.7759 12.0529L29.6439 11.9141C29.4029 11.6389 29.2125 11.3227 29.081 10.9805L29.028 10.8329C28.8677 10.344 28.871 9.81708 28.8613 9.23952L28.8381 7.90028C28.8225 6.9688 28.8081 6.63017 28.7504 6.39778L28.7225 6.30394C28.6603 6.11744 28.5703 5.94178 28.4555 5.78388L28.3331 5.63236C28.2057 5.49035 28.0374 5.36733 27.5775 5.08982L27.0118 4.75452L24.8183 3.47001C24.0222 3.00385 23.7281 2.84257 23.5017 2.77302L23.4083 2.7476C23.2185 2.70564 23.0235 2.69391 22.831 2.71241L22.6401 2.74174C22.4547 2.77935 22.2639 2.86125 21.793 3.11809L21.2186 3.43873L20.064 4.08783C19.6281 4.33309 19.2304 4.56686 18.8043 4.69098L18.6203 4.7379C18.2648 4.81192 17.8996 4.82085 17.5418 4.76527L17.3886 4.7379C17.0155 4.66008 16.6703 4.49096 16.3111 4.29311L15.9448 4.08783L14.7902 3.43678C13.9867 2.98433 13.6896 2.82798 13.4622 2.76227L13.3677 2.7388C13.1773 2.70011 12.9825 2.69163 12.7904 2.71339L12.5996 2.74565C12.4149 2.78644 12.2255 2.87194 11.7592 3.13667L11.1896 3.46708L8.99701 4.74963C8.20163 5.21517 7.9174 5.39337 7.74508 5.55709L7.67665 5.62747C7.54628 5.77285 7.43889 5.93728 7.3586 6.11527L7.28729 6.29807C7.22691 6.47953 7.20198 6.68817 7.18609 7.22968L7.1726 7.89441L7.15043 9.2229C7.14211 9.73116 7.14361 10.2 7.03574 10.6384L6.98273 10.8241C6.86718 11.1753 6.69088 11.5025 6.4623 11.79L6.3611 11.9102C6.10587 12.1997 5.78649 12.4184 5.43492 12.6346L5.07351 12.8526L3.943 13.532L3.94397 13.5329C3.15616 14.0121 2.87415 14.1943 2.70456 14.3609L2.6371 14.4323C2.50916 14.5799 2.40504 14.7466 2.32773 14.9259L2.2593 15.1097C2.18279 15.3531 2.17039 15.6438 2.17063 16.708L2.17159 19.276L2.17449 19.9408C2.18164 20.4827 2.20371 20.6917 2.26123 20.8743L2.32965 21.0581C2.40713 21.2377 2.51084 21.405 2.63902 21.5528L2.70649 21.6241C2.87632 21.791 3.15826 21.9738 3.94589 22.4531L5.07929 23.1423L5.43781 23.3612C5.78634 23.5779 6.10332 23.7968 6.35628 24.0856L6.45652 24.2058C6.68285 24.4923 6.85762 24.8176 6.97213 25.1668L7.02514 25.3525C7.13204 25.7886 7.13037 26.2549 7.13886 26.7602L7.16199 28.0994L7.17549 28.7632C7.19163 29.3057 7.21703 29.515 7.27765 29.6967L7.34897 29.8786C7.42939 30.0567 7.53644 30.2218 7.66701 30.3673L7.73544 30.4377C7.90798 30.6017 8.19288 30.7794 8.98834 31.2452L11.1819 32.5297L11.7515 32.8601C12.2177 33.1249 12.4071 33.2112 12.5919 33.2521L12.7837 33.2834C12.9756 33.3051 13.1699 33.2965 13.36 33.258L13.4544 33.2355C13.6817 33.17 13.978 33.0132 14.7816 32.561L15.9362 31.9119C16.4341 31.6316 16.8823 31.3655 17.3799 31.2618L17.5331 31.2344C17.891 31.179 18.2562 31.1877 18.6116 31.2618L18.7957 31.3087C19.2216 31.433 19.6195 31.6665 20.0553 31.9119L21.2099 32.5629L21.7853 32.8826C22.2564 33.1397 22.4469 33.2232 22.6324 33.2609L22.8242 33.2892C23.0166 33.3078 23.2111 33.2959 23.4006 33.2541L23.494 33.2296C23.7203 33.1603 24.0143 32.9987 24.8105 32.5326L27.0031 31.2501L27.5689 30.9148C28.0286 30.6375 28.1963 30.514 28.3235 30.3722L28.4459 30.2207C28.5604 30.0631 28.6508 29.8879 28.7129 29.7016L28.7398 29.6078C28.7974 29.3755 28.8123 29.0371 28.8275 28.1053L28.8497 26.7768C28.8592 26.1961 28.8558 25.6668 29.0174 25.1756L29.0704 25.027C29.2031 24.683 29.3957 24.3655 29.639 24.0895L29.772 23.9507C30.0939 23.6382 30.4956 23.4066 30.9266 23.1472L32.0562 22.4668L32.6171 22.1227C33.0721 21.8376 33.2382 21.7114 33.363 21.5674L33.4826 21.414C33.5945 21.2543 33.6819 21.0774 33.7408 20.89L33.7669 20.7952C33.8204 20.5619 33.8297 20.2229 33.8295 19.2917L33.8285 16.7237ZM11.0749 13.9503C13.2823 10.0723 18.171 8.74353 21.9944 10.9825C25.8178 13.2215 27.1278 18.1801 24.9204 22.0582C22.713 25.9362 17.8243 27.265 14.0009 25.026C10.1775 22.787 8.86752 17.8284 11.0749 13.9503ZM20.9092 12.8897C18.1243 11.2589 14.5632 12.2264 12.9552 15.0511C11.3474 17.8758 12.3013 21.4879 15.0861 23.1188C17.871 24.7496 21.4321 23.782 23.0401 20.9574C24.648 18.1327 23.694 14.5207 20.9092 12.8897ZM35.9999 19.2907L35.999 19.9427C35.9939 20.4556 35.9715 20.8994 35.8756 21.3142L35.8091 21.5596C35.6606 22.0313 35.429 22.4715 35.1267 22.8588L34.9928 23.022C34.55 23.5326 33.9503 23.8827 33.1732 24.3554L33.1693 24.3583L32.035 25.0407C31.5739 25.3182 31.4036 25.4292 31.3198 25.4982L31.2572 25.5578C31.1967 25.6265 31.1469 25.7039 31.1097 25.7875L31.077 25.8726C31.0462 25.9661 31.032 26.0896 31.0201 26.8139L30.9989 28.1415C30.9858 28.9456 30.9846 29.5836 30.8409 30.1621L30.7695 30.4074C30.6133 30.8764 30.3746 31.3119 30.066 31.6939L29.9301 31.8542C29.5916 32.2316 29.1661 32.5177 28.6435 32.8308L28.0883 33.1573L25.8958 34.4408C25.2086 34.843 24.6685 35.1698 24.1051 35.3421L23.8622 35.4056C23.3851 35.5109 22.8936 35.5284 22.4117 35.4565L22.2055 35.4193C21.7124 35.319 21.2521 35.0969 20.7184 34.8035L20.1565 34.4887L19.0009 33.8377C18.5352 33.5754 18.3563 33.4822 18.2559 33.4437L18.174 33.4193C18.0858 33.4009 17.9954 33.3964 17.9061 33.4056L17.8165 33.4193C17.7218 33.439 17.61 33.4885 16.9896 33.8377L15.835 34.4867C15.1416 34.8769 14.5967 35.195 14.0308 35.3577L13.786 35.4174C13.3074 35.5145 12.816 35.5229 12.3355 35.4428L12.1302 35.4037C11.6387 35.295 11.1817 35.064 10.6528 34.7614L10.0957 34.4369L7.90313 33.1524C7.21603 32.75 6.66664 32.4396 6.23774 32.0311L6.06137 31.8493C5.73286 31.4831 5.47293 31.0601 5.29325 30.601L5.22096 30.4016C5.05985 29.9183 5.01963 29.4029 5.00315 28.7876L4.99062 28.1366L4.96845 26.7973C4.95936 26.2568 4.9492 26.0532 4.93183 25.9459L4.91159 25.8618C4.88309 25.775 4.84177 25.6933 4.78919 25.6194L4.73329 25.548C4.70122 25.5114 4.66035 25.475 4.55211 25.4014L3.96228 25.0309L2.82889 24.3417C2.14845 23.9276 1.60486 23.6069 1.18277 23.1911L1.00929 23.0074C0.686814 22.6355 0.433451 22.2076 0.261403 21.7453L0.192975 21.5449C0.0398497 21.0589 0.00841161 20.5428 0.00214851 19.9271L0.000220974 19.276V16.709C1.29184e-05 15.7899 -0.0127309 15.0879 0.191047 14.4401L0.259475 14.2397C0.43136 13.7773 0.684864 13.3496 1.00736 12.9777L1.18084 12.7929C1.60285 12.3774 2.14703 12.0579 2.82696 11.6443L2.83081 11.6414L3.96517 10.959L4.55982 10.5895C4.66946 10.5157 4.71052 10.4787 4.74293 10.4419L4.7998 10.3706C4.85279 10.2964 4.89444 10.2143 4.92316 10.1271L4.9434 10.0421C4.96083 9.93398 4.97113 9.72856 4.98002 9.18576L5.00122 7.85824L5.01375 7.20719C5.02996 6.59171 5.06959 6.07562 5.2306 5.59228L5.30288 5.39383C5.48241 4.93462 5.74248 4.51177 6.07101 4.1455L6.24738 3.96368C6.67622 3.55536 7.22507 3.24437 7.91181 2.84243L10.1044 1.5589L10.6614 1.23435C11.19 0.932179 11.6466 0.702532 12.1379 0.594056L12.3432 0.553977C12.824 0.473963 13.3159 0.483026 13.7947 0.58037L14.0385 0.640001C14.6045 0.802884 15.1499 1.12039 15.8436 1.511L16.9992 2.16205L17.6102 2.49442C17.7274 2.55277 17.7788 2.57057 17.8261 2.58044L17.9148 2.59413C18.0044 2.60339 18.0951 2.59889 18.1837 2.58044L18.2656 2.556C18.366 2.51748 18.5451 2.42398 19.0106 2.16205L20.1652 1.51295L20.7271 1.19818C21.2608 0.904938 21.7209 0.682407 22.2142 0.582326L22.4204 0.546156C22.9022 0.474434 23.3939 0.490548 23.8709 0.596011L24.1137 0.66053C24.6769 0.833086 25.2172 1.16039 25.9044 1.56281L28.6531 3.17382C29.1757 3.48704 29.6003 3.77311 29.9388 4.15039L30.0756 4.31071C30.3844 4.69279 30.6227 5.12908 30.7792 5.59814L30.8505 5.84253C30.9946 6.42106 30.996 7.05887 31.0095 7.86313L31.0317 9.20238C31.0438 9.92216 31.058 10.0448 31.0885 10.1379L31.1213 10.2229C31.1582 10.306 31.207 10.3833 31.2668 10.4517L31.3295 10.5113C31.4126 10.5803 31.5817 10.6912 32.0379 10.9688L33.1713 11.658L33.7216 11.9943C34.2388 12.3163 34.6587 12.6095 34.9909 12.9923L35.1248 13.1556C35.4272 13.5429 35.6585 13.983 35.8072 14.4548L35.8746 14.7001C36.0091 15.2811 35.9997 15.9191 35.9999 16.7237V19.2907Z" fill="#1D1D1F"/>
</svg>
