<svg width="152" height="40" viewBox="0 0 152 40" fill="none" xmlns="http://www.w3.org/2000/svg">
<g clip-path="url(#clip0_928_5853)">
<path d="M151.568 15.347C150.874 14.073 149.379 13.1068 147.755 13.1068C146.327 13.1068 145.071 13.6997 145.071 15.2369C145.071 16.5314 146.652 17.4094 148.298 18.4857C150.095 19.627 151.958 21.0308 151.958 23.4686C151.958 26.6518 148.905 28.6047 145.374 28.6047C143.923 28.6047 142.408 28.3196 140.697 27.6611L140.978 23.4242C141.801 25.1153 143.34 26.4535 145.612 26.4535C147.367 26.4535 148.665 25.598 148.665 24.1046C148.665 22.8313 147.603 22.0415 146.305 21.2517C143.576 19.5839 141.844 18.2436 141.844 15.8298C141.844 12.2069 144.832 11 147.929 11C149.726 11 150.853 11.3296 152 11.3296L151.568 15.347ZM136.43 19.1435C136.039 19.8027 135.543 20.7012 135.238 21.3611C134.979 22.6118 134.849 24.281 134.849 26.1239C134.849 26.8925 134.979 27.9236 135.325 28.2751H130.8C131.6 27.5072 131.926 22.789 131.883 21.2955C131.277 19.1668 130.452 17.1249 129.197 14.644C128.397 13.0863 127.465 11.614 126.88 11.3296C127.897 11.2428 129.197 11.1765 129.826 11.1765C130.951 11.1765 131.255 11.3296 131.949 12.8668C133.029 15.3477 133.831 17.2117 134.308 18.5958C135.456 16.7734 136.257 15.5227 137.297 13.8105C137.556 13.3934 137.773 12.8668 137.773 12.3615C137.773 11.9655 137.707 11.5272 137.535 11.3296H142.018C141.152 11.5272 137.253 17.7397 136.43 19.1435ZM120.686 15.3039L118.002 21.2073H122.375L120.686 15.3039ZM125.949 28.4283C124.519 28.4283 124.411 28.3852 123.263 24.3904L122.852 22.9195C122.16 23.2484 120.924 23.4023 118.954 23.4023H116.962L116.615 24.1483C116.117 25.2691 115.446 26.584 115.446 27.5079C115.446 27.7274 115.468 27.9681 115.555 28.2758H103.73C104.402 27.5079 104.618 25.0277 104.943 20.5269L105.008 19.4519C105.181 16.8835 105.313 14.908 105.29 13.526C105.268 12.3848 105.16 11.6599 104.857 11.331H109.427C108.776 11.8364 108.537 14.5572 108.235 19.0581L108.148 20.133C108.04 21.8016 107.824 23.5131 107.824 25.1816C107.824 25.9488 108.127 26.1246 108.907 26.1246C111.678 26.1246 112.372 26.0589 113.627 25.2028C114.406 23.7538 115.296 21.9314 116.16 20.0441L117.332 17.5201C118.435 15.1494 119.517 12.7342 119.517 12.274C119.517 11.9437 119.431 11.6373 119.302 11.3296H122.94C122.94 11.3296 124.412 16.8616 124.737 18.046L125.451 20.7245C126.685 25.2247 127.466 27.419 128.505 28.2751C127.638 28.3852 126.404 28.4283 125.949 28.4283ZM96.4761 28.6047C92.1664 28.6047 89.6755 25.0052 89.6755 20.9666C89.6755 15.3477 92.6852 11 98.4244 11C100.222 11 101.067 11.3296 102.517 11.3296L102.084 15.654C101.261 14.1394 99.9181 13.1075 98.1215 13.1075C94.5486 13.1075 93.0974 17.0155 93.0974 20.3737C93.0974 24.017 95.1119 26.0137 97.7964 26.0137C99.2475 26.0137 100.525 25.6185 102.669 24.1046C101.803 26.9151 99.7886 28.6047 96.4761 28.6047ZM81.5339 13.3934C81.1223 13.3934 80.623 13.3934 80.2345 13.4371C80.1042 14.1613 79.9956 15.4127 79.8438 17.4312L79.7568 18.6177C79.9747 18.6621 80.2554 18.6847 80.5158 18.6847C82.5937 18.6847 84.024 17.4101 84.024 15.4797C84.024 14.1613 83.1145 13.3934 81.5339 13.3934ZM87.5747 29C86.3407 29 86.0371 28.8017 85.6263 28.2307L80.9482 21.6456C80.5798 21.1409 80.2985 20.7238 79.7143 20.7238H79.6057L79.52 21.997C79.4107 23.7312 79.3459 25.1153 79.3459 26.1464C79.3675 27.2877 79.4977 27.9893 79.8013 28.2751H75.2751C75.9241 27.6823 76.1615 25.7067 76.5306 20.5262L76.5961 19.4512C76.7694 16.9054 76.8997 14.9292 76.8774 13.5472C76.8551 12.3396 76.7263 11.5929 76.4004 11.3296H82.5721C84.5859 11.3296 87.3581 11.6818 87.3581 14.9955C87.3581 17.7164 85.5601 19.2099 83.3304 19.9114C83.547 20.1097 83.9362 20.6144 84.1751 20.9221L87.5747 25.4879C89.6971 28.3196 89.8698 28.4509 90.6288 28.8461C89.6755 28.9555 88.3985 29 87.5747 29ZM66.4837 15.3039L63.7749 21.2073H68.1709L66.4837 15.3039ZM71.7446 28.4283C70.3164 28.4283 70.2078 28.3852 69.0602 24.3904L68.6486 22.9195C67.9544 23.2484 66.7205 23.4023 64.7498 23.4023H62.7575L62.4115 24.1483C62.0647 24.9395 61.22 26.5643 61.2416 27.5079C61.2416 27.7274 61.2632 27.9469 61.3502 28.2758H57.3441C58.4917 27.1127 59.9429 24.413 61.9568 20.0448L63.1266 17.5209C64.1872 15.2383 65.3138 12.648 65.3138 12.2747C65.3138 11.9444 65.2282 11.638 65.0973 11.3303H68.7364C68.7364 11.3303 69.6876 14.9962 70.533 18.0467L71.2474 20.7252C72.482 25.2254 73.2612 27.4197 74.3009 28.2758C73.3699 28.3852 72.2 28.4283 71.7446 28.4283ZM51.1278 13.3715C50.8027 13.3715 50.3702 13.3715 49.9587 13.416C49.7853 14.601 49.6767 15.7422 49.591 16.9929C49.591 16.9929 49.5255 18.0679 49.5255 18.0241H49.9587C52.0811 18.0241 54.0309 17.2781 54.0309 15.3039C54.0309 14.1613 53.0992 13.3715 51.1278 13.3715ZM50.5875 20.0879H49.3967L49.2233 22.5899C49.137 23.6881 49.0931 24.6092 49.0715 25.7068C49.0715 25.8613 49.5478 26.1902 50.6731 26.1902C53.0122 26.1902 54.5504 25.0052 54.5504 23.0508C54.5504 20.8777 52.7956 20.0879 50.5875 20.0879ZM50.8472 28.2751H45C45.7367 27.6159 45.9317 25.0482 46.2562 20.5262L46.321 19.4731C46.495 16.9047 46.6246 14.9292 46.603 13.5472C46.5814 12.3615 46.4512 11.5929 46.126 11.3296H52.6661C54.2252 11.3296 57.3441 11.4178 57.3441 14.7097C57.3441 16.9047 55.3296 18.2655 53.4892 18.7497C56.0879 19.0129 58.037 20.2855 58.037 23.0071C58.0363 25.9481 55.308 28.2751 50.8472 28.2751Z" fill="#9A9A9A"/>
<path d="M17.1416 0.00256695C16.0907 0.00256695 15.8734 0.187381 15.5324 0.570991C15.3923 0.562538 15.2521 0.558709 15.1118 0.559518C14.3033 0.559518 13.265 0.679301 12.3796 1.27702C11.5244 1.8467 11.1177 2.85477 11.5737 3.59268C11.5737 3.59268 11.8794 3.14028 12.8848 3.14028C13.0263 3.14028 13.1829 3.15554 13.3497 3.16956C14.7391 3.33524 15.7673 4.07316 15.6423 6.0218C15.5311 7.96916 14.8073 10.1408 11.8465 10.1663C11.8465 10.1663 11.4651 10.1663 11.0583 10.1281C9.68027 9.97644 9.24701 9.10342 9.24701 9.10342C9.24701 9.10342 10.4381 8.77716 10.4483 7.25164C10.4381 6.21424 9.54258 5.26479 8.25039 4.88118C7.80416 4.75404 7.3423 4.6914 6.87863 4.69511C5.35529 4.69511 3.645 5.3387 2.49175 6.85785C-0.12294 10.3409 -0.335147 15.4183 0.302737 20.1402C0.944411 24.8722 3.9191 29.2551 4.00626 29.3749C4.06941 29.459 4.12625 29.5049 4.19067 29.5049C4.22889 29.5025 4.26508 29.4867 4.29299 29.4603C5.5776 28.2024 6.80284 26.4832 7.32704 25.3336C7.88787 25.7848 7.59483 26.7444 7.28662 27.7691C6.99357 28.8167 6.28116 30.2071 6.02348 30.6557C5.77465 31.0941 5.44118 31.6039 5.88959 31.8702C5.94221 31.9005 6.0021 31.9155 6.06264 31.9136C6.63863 31.9136 7.99398 30.9004 9.50595 28.8664C11.1986 26.5775 12.0575 24.546 12.0575 24.546C12.1813 24.574 12.3884 24.7856 12.3543 25.3616C12.3316 25.9466 11.7354 28.1234 10.5746 30.1497C9.40111 32.1749 8.31734 33.4417 8.09882 33.7297C7.96366 33.8967 8.07861 34.0012 8.16577 34.0687C8.25166 34.1273 10.327 36.0823 13.3421 37.734C16.9143 39.6546 18.4982 40 18.4982 40C18.4982 40 20.0784 39.6635 23.6506 37.7442C26.6644 36.09 28.7486 34.126 28.8256 34.0598C28.9128 33.9999 29.0239 33.9055 28.8926 33.722C28.6867 33.4467 27.5991 32.1736 26.4282 30.1485C25.2712 28.1361 24.6522 25.9453 24.6434 25.368C24.6194 24.7856 24.8139 24.5931 24.9326 24.5447C24.9326 24.5447 25.8004 26.5889 27.493 28.8651C29.0126 30.9017 30.3553 31.9123 30.9338 31.9123C30.9964 31.9144 31.0583 31.8994 31.1132 31.869C31.5477 31.6026 31.2243 31.0852 30.9692 30.6519C30.7317 30.2058 30.0092 28.8243 29.7023 27.7678C29.4079 26.7317 29.1023 25.7733 29.6732 25.3323C30.1987 26.4819 31.4151 28.21 32.7035 29.4501C32.7174 29.4661 32.7345 29.4791 32.7536 29.4883C32.7727 29.4975 32.7935 29.5027 32.8146 29.5036C32.8715 29.5036 32.9321 29.459 32.9851 29.3812C33.0799 29.2538 36.0596 24.8786 36.6962 20.1389C37.3354 15.4069 37.1244 10.3409 34.5072 6.85656C33.3616 5.33359 31.6386 4.68617 30.1052 4.68617C29.6265 4.68617 29.1692 4.74863 28.7511 4.8697C27.4488 5.26478 26.557 6.22319 26.5646 7.2504C26.5646 8.77592 27.7621 9.10214 27.7621 9.10214C27.7621 9.10214 27.3617 9.9535 25.9343 10.1268C25.6779 10.1589 25.4197 10.175 25.1613 10.1752C24.0876 10.1752 23.1832 9.83115 22.3495 8.64336C21.5411 7.50017 21.5676 5.14628 21.5209 4.36121C21.4843 3.56468 21.315 1.7779 20.4851 1.04891C19.6578 0.300807 18.6498 0.0497037 17.393 0C17.3008 0.00254891 17.2187 0.00256695 17.1416 0.00256695Z" fill="#9A9A9A"/>
</g>
<defs>
<clipPath id="clip0_928_5853">
<rect width="152" height="40" fill="white"/>
</clipPath>
</defs>
</svg>
