<svg width="1897" height="40" viewBox="0 0 1897 40" fill="none" xmlns="http://www.w3.org/2000/svg">
<path d="M36.3998 33.5961H29.5952L33.8513 6.49133H40.6555L36.3998 33.5961Z" fill="#9A9A9A"/>
<path d="M61.0669 7.15396C59.7248 6.60553 57.596 6 54.9638 6C48.244 6 43.512 9.69067 43.483 14.9672C43.4272 18.8602 46.871 21.0225 49.4466 22.3206C52.0792 23.647 52.9741 24.5127 52.9741 25.6951C52.9473 27.5109 50.8468 28.3479 48.8877 28.3479C46.171 28.3479 44.7154 27.9164 42.5033 26.9061L41.6072 26.473L40.655 32.5575C42.251 33.3063 45.1913 33.9709 48.244 34C55.3839 34 60.0321 30.3665 60.0872 24.7435C60.1144 21.6579 58.2959 19.2937 54.3755 17.3617C51.9955 16.1215 50.538 15.2853 50.538 14.0164C50.5659 12.8628 51.7708 11.6813 54.4573 11.6813C56.6695 11.6234 58.2948 12.171 59.5261 12.7191L60.1415 13.0069L61.0669 7.15396Z" fill="#9A9A9A"/>
<path d="M70.1111 23.9938C70.6715 22.4367 72.8278 16.4101 72.8278 16.4101C72.7995 16.468 73.387 14.8243 73.723 13.8152L74.1986 16.1507C74.1986 16.1507 75.4872 22.6387 75.767 23.9938C74.7035 23.9938 71.4551 23.9938 70.1111 23.9938ZM78.5105 6.49133H73.2471C71.624 6.49133 70.3909 6.98112 69.6906 8.74023L59.5833 33.5957H66.7231C66.7231 33.5957 67.8986 30.2503 68.1512 29.5298C68.9345 29.5298 75.8801 29.5298 76.8878 29.5298C77.0831 30.4814 77.6997 33.5957 77.6997 33.5957H84.0001L78.5105 6.49133Z" fill="#9A9A9A"/>
<path d="M23.9118 6.49133L17.2478 24.9742L16.5196 21.2256C15.2876 16.9003 11.4237 12.2009 7.11182 9.86429L13.2157 33.5673H20.4114L31.107 6.49133H23.9118Z" fill="#9A9A9A"/>
<path d="M11.0599 6.49133H0.112002L0 7.03899C8.54006 9.28827 14.196 14.7101 16.5197 21.2268L14.1398 8.76974C13.748 7.03861 12.5439 6.54844 11.0599 6.49133Z" fill="#D6D6D6"/>
<g clip-path="url(#clip0_928_5818)">
<path d="M185.269 4.27832H167.679V35.7217H185.269V4.27832Z" fill="#9A9A9A"/>
<path d="M168.85 20C168.85 13.6117 171.868 7.94175 176.5 4.27832C173.091 1.61165 168.791 0 164.101 0C152.99 0 144 8.94498 144 20C144 31.055 152.99 40 164.101 40C168.791 40 173.091 38.3884 176.5 35.7217C171.862 32.11 168.85 26.3884 168.85 20Z" fill="#9A9A9A"/>
<path d="M209 20C209 31.055 200.01 40 188.899 40C184.209 40 179.909 38.3884 176.5 35.7217C181.19 32.0518 184.15 26.3884 184.15 20C184.15 13.6117 181.132 7.94175 176.5 4.27832C179.902 1.61165 184.202 0 188.892 0C200.01 0 209 9.00324 209 20Z" fill="#D6D6D6"/>
<path d="M233.462 26.7961V20.6178C233.462 18.2545 231.957 16.7069 229.374 16.7069C228.083 16.7069 226.679 17.1148 225.714 18.4584C224.961 17.3308 223.883 16.7069 222.266 16.7069C221.188 16.7069 220.109 17.0189 219.257 18.1465V16.9109H217V26.7961H219.257V21.3376C219.257 19.5861 220.222 18.7584 221.727 18.7584C223.231 18.7584 223.983 19.6821 223.983 21.3376V26.7961H226.24V21.3376C226.24 19.5861 227.318 18.7584 228.71 18.7584C230.214 18.7584 230.967 19.6821 230.967 21.3376V26.7961H233.462ZM266.937 16.9109H263.276V13.9237H261.019V16.9109H258.975V18.8663H261.019V23.401C261.019 25.6684 261.984 27 264.567 27C265.532 27 266.611 26.6881 267.363 26.2802L266.711 24.4207C266.059 24.8286 265.307 24.9366 264.768 24.9366C263.689 24.9366 263.263 24.3128 263.263 23.2931V18.8663H266.924V16.9109H266.937ZM286.094 16.6949C284.803 16.6949 283.937 17.3188 283.398 18.1345V16.8989H281.142V26.7841H283.398V21.2177C283.398 19.5741 284.151 18.6384 285.555 18.6384C285.981 18.6384 286.52 18.7464 286.959 18.8423L287.611 16.7789C287.16 16.6949 286.52 16.6949 286.094 16.6949ZM257.145 17.7267C256.067 17.0069 254.562 16.6949 252.945 16.6949C250.362 16.6949 248.645 17.9306 248.645 19.886C248.645 21.5296 249.936 22.4653 252.193 22.7652L253.271 22.8732C254.449 23.0771 255.101 23.389 255.101 23.9049C255.101 24.6247 254.236 25.1405 252.732 25.1405C251.227 25.1405 250.036 24.6247 249.284 24.1088L248.206 25.7524C249.384 26.5801 251.002 26.988 252.619 26.988C255.628 26.988 257.358 25.6444 257.358 23.7969C257.358 22.0454 255.954 21.1217 253.81 20.8098L252.732 20.7018C251.766 20.5938 251.014 20.3899 251.014 19.7781C251.014 19.0583 251.766 18.6504 252.957 18.6504C254.249 18.6504 255.54 19.1662 256.192 19.4781L257.145 17.7267ZM317.187 16.6949C315.895 16.6949 315.03 17.3188 314.491 18.1345V16.8989H312.234V26.7841H314.491V21.2177C314.491 19.5741 315.243 18.6384 316.648 18.6384C317.074 18.6384 317.613 18.7464 318.052 18.8423L318.704 16.8029C318.265 16.6949 317.626 16.6949 317.187 16.6949ZM288.351 21.8535C288.351 24.8406 290.507 27 293.842 27C295.347 27 296.425 26.6881 297.503 25.8723L296.425 24.1208C295.56 24.7446 294.707 25.0446 293.729 25.0446C291.899 25.0446 290.607 23.8089 290.607 21.8535C290.607 19.994 291.899 18.7584 293.729 18.6624C294.695 18.6624 295.56 18.9743 296.425 19.5861L297.503 17.8346C296.425 17.0069 295.347 16.7069 293.842 16.7069C290.507 16.6949 288.351 18.8663 288.351 21.8535ZM309.225 21.8535V16.9109H306.969V18.1465C306.216 17.2228 305.138 16.7069 303.734 16.7069C300.825 16.7069 298.569 18.8663 298.569 21.8535C298.569 24.8406 300.825 27 303.734 27C305.239 27 306.317 26.4841 306.969 25.5604V26.7961H309.225V21.8535ZM300.938 21.8535C300.938 20.102 302.117 18.6624 304.06 18.6624C305.891 18.6624 307.182 20.006 307.182 21.8535C307.182 23.605 305.891 25.0446 304.06 25.0446C302.129 24.9366 300.938 23.593 300.938 21.8535ZM273.933 16.6949C270.924 16.6949 268.767 18.7584 268.767 21.8415C268.767 24.9366 270.924 26.988 274.045 26.988C275.55 26.988 277.054 26.5801 278.245 25.6444L277.167 24.0968C276.302 24.7206 275.224 25.1285 274.158 25.1285C272.754 25.1285 271.362 24.5047 271.036 22.7652H278.672C278.672 22.4533 278.672 22.2494 278.672 21.9374C278.772 18.7584 276.829 16.6949 273.933 16.6949ZM273.933 18.5544C275.337 18.5544 276.302 19.3822 276.515 20.9177H271.137C271.35 19.5861 272.315 18.5544 273.933 18.5544ZM330 21.8535V13H327.743V18.1465C326.991 17.2228 325.913 16.7069 324.509 16.7069C321.6 16.7069 319.343 18.8663 319.343 21.8535C319.343 24.8406 321.6 27 324.509 27C326.013 27 327.091 26.4841 327.743 25.5604V26.7961H330V21.8535ZM321.713 21.8535C321.713 20.102 322.891 18.6624 324.835 18.6624C326.665 18.6624 327.956 20.006 327.956 21.8535C327.956 23.605 326.665 25.0446 324.835 25.0446C322.891 24.9366 321.713 23.593 321.713 21.8535ZM246.162 21.8535V16.9109H243.905V18.1465C243.153 17.2228 242.075 16.7069 240.671 16.7069C237.762 16.7069 235.505 18.8663 235.505 21.8535C235.505 24.8406 237.762 27 240.671 27C242.175 27 243.253 26.4841 243.905 25.5604V26.7961H246.162V21.8535ZM237.775 21.8535C237.775 20.102 238.953 18.6624 240.896 18.6624C242.727 18.6624 244.018 20.006 244.018 21.8535C244.018 23.605 242.727 25.0446 240.896 25.0446C238.953 24.9366 237.775 23.593 237.775 21.8535Z" fill="#9A9A9A"/>
</g>
<g clip-path="url(#clip1_928_5818)">
<mask id="mask0_928_5818" style="mask-type:luminance" maskUnits="userSpaceOnUse" x="381" y="-9" width="58" height="58">
<path d="M381.197 -8.84986H438.839V48.7927H381.197V-8.84986Z" fill="white"/>
</mask>
<g mask="url(#mask0_928_5818)">
<path d="M410 39.9237C421.004 39.9237 429.924 31.0036 429.924 19.9999C429.924 8.99637 421.004 0.0762093 410 0.0762093C398.996 0.0762093 390.076 8.99637 390.076 19.9999C390.076 31.0036 398.996 39.9237 410 39.9237Z" fill="#9A9A9A"/>
<path d="M399.613 19.9424L403.013 16.5339C403.126 16.419 403.189 16.2669 403.189 16.1055C403.189 15.7693 402.916 15.4963 402.58 15.4963C402.416 15.4963 402.262 15.5605 402.146 15.6777C402.146 15.6784 398.749 19.0732 398.749 19.0732L395.337 15.6726C395.222 15.5589 395.069 15.4963 394.907 15.4963C394.571 15.4963 394.298 15.7692 394.298 16.1051C394.298 16.2689 394.363 16.4226 394.481 16.5385L397.88 19.9377L394.482 23.342C394.363 23.4596 394.298 23.6136 394.298 23.7782C394.298 24.1144 394.571 24.387 394.907 24.387C395.069 24.387 395.222 24.3241 395.337 24.2091L398.744 20.8067L402.138 24.1967C402.259 24.3212 402.414 24.3875 402.58 24.3875C402.915 24.3875 403.189 24.1144 403.189 23.7782C403.189 23.616 403.126 23.4636 403.012 23.3487L399.613 19.9424Z" fill="white"/>
<path d="M419.827 19.9413C419.827 20.5518 420.323 21.0483 420.934 21.0483C421.544 21.0483 422.041 20.5518 422.041 19.9413C422.041 19.3307 421.544 18.8342 420.934 18.8342C420.323 18.8342 419.827 19.3307 419.827 19.9413Z" fill="white"/>
<path d="M417.727 19.9419C417.727 18.1741 419.165 16.7357 420.933 16.7357C422.7 16.7357 424.139 18.1741 424.139 19.9419C424.139 21.7092 422.7 23.147 420.933 23.147C419.165 23.147 417.727 21.7092 417.727 19.9419ZM416.466 19.9419C416.466 22.4047 418.47 24.4084 420.933 24.4084C423.396 24.4084 425.401 22.4047 425.401 19.9419C425.401 17.4787 423.396 15.4744 420.933 15.4744C418.47 15.4744 416.466 17.4787 416.466 19.9419Z" fill="white"/>
<path d="M416.149 15.5508L415.961 15.5503C415.399 15.5503 414.856 15.7277 414.403 16.077C414.343 15.8037 414.099 15.5981 413.808 15.5981C413.473 15.5981 413.204 15.8664 413.204 16.202C413.204 16.2032 413.206 23.726 413.206 23.726C413.207 24.061 413.48 24.3333 413.815 24.3333C414.15 24.3333 414.423 24.061 414.424 23.7252C414.424 23.7237 414.424 19.0989 414.424 19.0989C414.424 17.557 414.565 16.9343 415.886 16.7692C416.008 16.754 416.141 16.7564 416.141 16.7564C416.503 16.744 416.76 16.4957 416.76 16.16C416.76 15.8241 416.486 15.5508 416.149 15.5508Z" fill="white"/>
<path d="M404.451 19.2064C404.451 19.1898 404.452 19.1724 404.453 19.1553C404.807 17.7571 406.073 16.7224 407.581 16.7224C409.108 16.7224 410.385 17.7825 410.721 19.2064H404.451ZM411.969 19.0914C411.706 17.8485 411.026 16.8275 409.989 16.1718C408.475 15.2102 406.474 15.2634 405.011 16.3038C403.818 17.1528 403.129 18.5416 403.129 19.9723C403.129 20.331 403.172 20.6931 403.262 21.0495C403.713 22.8221 405.237 24.164 407.054 24.3864C407.593 24.4517 408.118 24.4205 408.661 24.2798C409.128 24.1661 409.58 23.9768 409.996 23.71C410.428 23.4322 410.789 23.0659 411.139 22.6274C411.146 22.6193 411.153 22.6122 411.16 22.6037C411.403 22.3028 411.358 21.8748 411.091 21.6705C410.866 21.4981 410.489 21.4282 410.192 21.8087C410.128 21.8997 410.057 21.9933 409.978 22.0869C409.742 22.3479 409.449 22.6008 409.098 22.797C408.651 23.0357 408.142 23.1722 407.6 23.1752C405.828 23.1555 404.88 21.9186 404.543 21.0357C404.484 20.8709 404.438 20.6998 404.407 20.5237C404.403 20.4908 404.399 20.459 404.398 20.4297C404.765 20.4297 410.757 20.4287 410.757 20.4287C411.629 20.4104 412.098 19.7951 411.969 19.0914Z" fill="white"/>
</g>
</g>
<g clip-path="url(#clip2_928_5818)">
<path d="M499.829 39.0386L499.026 38.4712C498.686 34.382 497.422 31.9035 496.751 30.6267C497.466 30.1494 498.653 29.0495 498.653 27.4706C498.653 25.8917 497.379 25.0588 497.379 23.1044C497.379 22.0262 497.742 21.1266 498.335 20.4273C497.95 19.8714 497.499 19.5711 496.829 19.5711C496.081 19.5711 495.411 20.1936 495.411 21.1483C495.411 21.7041 495.652 22.315 496.168 22.582C495.795 23.1044 494.838 23.1594 494.311 22.37H494.299C494.299 24.236 496.256 25.5362 496.256 27.5257C496.256 28.8141 495.245 30.0593 493.783 30.0593C492.695 30.0593 491.673 29.5486 491.144 28.5254C492.331 28.8358 493.188 28.3585 493.188 27.292C493.188 25.3593 490 23.4582 490 20.1702C490 17.5816 491.968 16.1479 494.21 16.1479C496.254 16.1479 498.079 17.1042 499.454 19.5043C500.157 18.9702 501.014 18.6714 501.883 18.4928C504.224 18.0256 507.094 18.4478 509.291 17.5032C510.27 17.0808 511.082 16.3365 511.082 15.4803C511.082 15.0697 510.851 14.8244 510.521 14.8244C510.356 14.8244 510.103 14.9028 509.96 15.2683C509.531 14.8911 509.398 14.4905 509.398 14.09C509.398 13.424 509.606 13.1119 509.838 12.7898C509.618 12.2123 508.936 12.0788 508.474 12.6446C507.903 11.578 508.254 10.111 509.739 9.66707V9.65535C508.002 9.36661 507.541 8.27839 507.737 7.06668C507.903 7.21188 508.089 7.30034 508.276 7.30034C508.561 7.30034 508.738 7.06668 508.738 6.73287C508.738 6.37737 508.563 5.82158 507.661 5.21072C508.452 4.01068 509.816 3.83209 510.508 4.27773L510.52 4.26605C510.168 3.77701 509.991 2.9208 510.553 2.07628C510.685 2.26487 511.003 2.5436 511.499 2.5436C512.95 2.5436 513.004 0.932986 514.114 0.777768C514.048 1.27847 514.18 1.9778 514.796 1.9778C515.598 1.9778 515.971 0.756071 516.169 0C516.521 0.200284 516.774 0.544104 516.719 1.18835H516.731L517.215 0.200284C517.621 0.544104 517.698 1.12326 517.566 1.644C517.533 1.77752 517.489 1.87766 517.489 1.95444C517.489 2.34332 518.643 2.63207 518.643 3.49829C518.643 3.6435 518.598 3.79872 518.532 3.97563L521.171 7.34207C521.336 7.55236 521.39 7.77602 521.39 7.96461C521.39 8.66394 520.786 9.40837 519.917 9.40837C519.049 9.40837 518.752 8.93099 518.709 8.709L516.412 7.57573C516.28 7.79771 516.127 8.1649 516.127 8.57548C516.127 11.1308 519.699 11.1975 520.568 14.5422L524.108 13.354C526.636 15.8424 529.307 18.2542 530.956 19.2422L532 20.5875H528.835V19.6545L527.966 19.4108C526.636 17.2995 524.834 16.1446 523.867 15.8558C522.691 16.5785 521.811 17.3329 520.778 18.4995C522.46 18.366 524.339 18.5329 525.911 18.8333L525.087 25.9785L524.417 27.8111L522.637 29.3449V26.1887H523.593L523.329 25.189C524.11 23.0993 524.209 21.7007 524.209 20.9447C524.209 20.711 524.197 20.489 524.121 20.4106C524.055 20.3438 523.781 20.4106 523.538 20.4773C522.901 20.6559 521.856 21.155 520.515 22.2549C519.307 23.2546 518.646 23.7102 517.008 23.5217C515.162 25.4544 511.249 26.389 507.818 26.344C507.554 29.1546 504.477 30.7769 504.477 32.1105C504.477 32.5878 504.927 33.3656 505.916 34.866C507.016 36.5334 508.059 38.1324 509.357 38.6447L510.457 40H507.28L507.259 39.0337L506.357 38.5329C505.324 36.6002 503.709 34.4655 501.488 32.466C502.026 31.3778 502.312 30.2662 502.324 29.2097C501.323 30.7319 499.862 30.7435 499.598 31.8985C499.499 32.3325 499.553 33.177 499.784 34.2652C500.124 35.9092 500.433 37.8653 501.939 38.6214L502.982 40H499.827V39.0337L499.829 39.0386Z" fill="#9A9A9A"/>
<path d="M494.402 17.0491C495.068 17.0491 496.013 17.2043 496.669 17.8152C495.113 17.1041 492.801 17.5715 492.634 19.4492C492.367 19.1604 492.279 18.8049 492.257 18.4928C491.679 18.7598 491.245 19.5593 491.135 20.4155C490.679 18.3709 492.335 17.0491 494.402 17.0491ZM503.015 19.2722C505.172 19.0052 508.105 19.2505 510.506 18.0605C511.627 17.5047 512.761 16.5718 512.761 15.305C512.761 13.7828 510.883 12.2824 510.883 9.04941C510.883 6.93809 511.816 4.50464 514.283 3.18277C512.716 4.53802 511.971 6.09356 511.971 7.9829C511.971 9.87222 512.716 11.8834 515.228 12.8715C517.006 13.5708 518.662 13.5942 519.373 15.0713C518.74 14.5705 517.939 14.4053 517.373 14.4053C513.761 14.4053 512.394 21.1616 508.16 23.0826C509.06 20.7376 506.349 19.9832 503.848 20.0383C501.804 20.0834 498.68 20.6392 498.647 23.872C498.069 21.7057 499.313 19.7279 503.014 19.2722H503.015ZM519.73 8.31671C519.73 8.12811 519.842 7.80599 519.842 7.52725C519.842 7.38205 519.809 7.20513 519.632 6.92807C519.376 6.53919 518.887 5.86156 518.42 5.36085C517.797 4.70493 517.253 4.51632 516.408 4.5714C517.098 4.1942 517.253 3.8387 517.253 3.43813C517.253 3.09431 517.064 2.72712 516.752 2.3833C517.196 2.46175 518.386 2.95077 518.386 3.59502C518.386 3.72854 518.32 3.85038 518.186 3.98391L521.042 7.56231C520.942 7.71752 520.72 7.65076 520.531 7.65076C520.41 7.65076 520.331 7.72921 520.331 7.86273C520.331 8.10641 520.52 8.40684 520.632 8.57374C520.543 8.62882 520.376 8.69558 520.198 8.69558C519.976 8.69558 519.73 8.61713 519.73 8.31838V8.31671Z" fill="#9A9A9A"/>
<path d="M540.437 26.4357V13.5659C540.437 12.8463 540.26 12.0244 540 11H544.341C544.081 12.0244 543.905 12.8447 543.905 13.5643V26.0627H548.659C550.252 26.0627 551.254 25.9946 552.316 25.7145L551.241 29H540C540.26 27.9756 540.437 27.1553 540.437 26.4357Z" fill="#9A9A9A"/>
<path d="M553.666 13.5643C553.666 12.8447 553.503 12.023 553.263 11H557.27C557.031 12.0245 556.867 12.8447 556.867 13.5643V26.0626H561.257C562.726 26.0626 563.652 25.9945 564.632 25.7144L563.641 29H553.263C553.503 27.9755 553.666 27.1552 553.666 26.4356V13.5643Z" fill="#9A9A9A"/>
<path d="M564.632 20C564.632 14.9844 568.322 11 573.632 11C578.942 11 582.632 14.9844 582.632 20C582.632 25.0157 578.942 29 573.632 29C568.322 29 564.632 25.0157 564.632 20ZM579.36 20C579.36 16.3779 577.201 13.8762 573.632 13.8762C570.063 13.8762 567.903 16.3779 567.903 20C567.903 23.6221 570.063 26.1239 573.632 26.1239C577.201 26.1239 579.36 23.6221 579.36 20Z" fill="#9A9A9A"/>
<path d="M589.024 22.3401C586.257 19.5279 583.851 15.7019 582.632 11H586.45C586.506 11.8094 586.653 12.5524 586.958 13.419C587.827 15.8939 589.148 17.9647 590.662 19.7199C592.22 18.0437 593.655 15.8939 594.524 13.419C594.829 12.5524 594.976 11.811 595.032 11H598.737C597.528 15.7035 595.112 19.5279 592.344 22.3401V29H589.024V22.3401Z" fill="#9A9A9A"/>
<path d="M601.986 26.4354V13.5645C601.986 12.8448 601.821 12.023 601.579 11H607.523C613.171 11 616.737 14.6898 616.737 20C616.737 25.3102 613.171 29 607.523 29H601.579C601.821 27.9754 601.986 27.1551 601.986 26.4354ZM613.469 19.9891C613.469 16.0858 611.3 13.936 607.304 13.936H605.222V26.0639H607.304C611.3 26.0639 613.469 23.9157 613.469 19.9891Z" fill="#9A9A9A"/>
<path d="M617.942 27.7936L617.886 24.2818C620.165 25.7192 621.692 26.3775 623.465 26.3775C625.486 26.3775 626.777 25.5984 626.777 24.1927C626.777 23.2597 626.227 22.535 624.418 21.8223L621.534 20.6915C618.873 19.6482 617.684 18.2109 617.684 15.9612C617.684 12.9205 620.109 11 623.847 11C625.801 11 627.641 11.6039 628.709 12.0976V15.4781C626.688 14.1721 625.206 13.6346 623.691 13.6346C621.805 13.6346 620.873 14.3593 620.873 15.4675C620.873 16.5757 621.468 17.1358 622.882 17.7066L626.508 19.1439C628.619 19.9773 630 21.4811 630 23.776C630 26.7836 627.597 29 623.321 29C621.076 29 619.134 28.3085 617.944 27.7921L617.942 27.7936Z" fill="#9A9A9A"/>
</g>
<g clip-path="url(#clip3_928_5818)">
<path d="M770 20.0235L750.012 0V40L770 20.0235Z" fill="#9A9A9A"/>
<path d="M730.024 20.0235L750.012 0H710.035L730.024 20.0235Z" fill="#9A9A9A"/>
<path d="M690 20.0235L710.035 40V0L690 20.0235Z" fill="#9A9A9A"/>
<path d="M730.024 20.0235L710.035 40H750.012L730.024 20.0235Z" fill="#9A9A9A"/>
<path d="M789.25 21.3146H781.75V29H778V11H781.75V18.382H789.25V11H793V29H789.25V21.3146Z" fill="#9A9A9A"/>
<path d="M802.807 29C799.09 29 796.048 27.4878 796 23.3415H799.717C799.766 25.1951 800.828 26.3171 802.855 26.3171C804.352 26.3171 806.09 25.5366 806.09 23.8293C806.09 22.4634 804.931 22.0732 803 21.4878L801.745 21.1463C799.041 20.3659 796.338 19.2927 796.338 16.1707C796.338 12.3171 799.91 11 803.145 11C806.476 11 809.372 12.1707 809.421 16.0244H805.703C805.559 14.4634 804.641 13.5366 802.903 13.5366C801.503 13.5366 800.152 14.2683 800.152 15.8293C800.152 17.0976 801.31 17.4878 803.724 18.2683L805.172 18.7073C808.117 19.6341 810 20.6585 810 23.5854C809.952 27.4878 806.186 29 802.807 29Z" fill="#9A9A9A"/>
<path d="M812 11.0183H818.572C819.792 10.9676 821.064 11.0183 822.283 11.2209C824.562 11.7274 826.311 13.1457 826.311 15.577C826.311 17.907 824.774 19.0721 822.548 19.6292C825.092 20.0851 827 21.3008 827 23.9854C827 28.0883 822.76 29 819.473 29H812.053L812 11.0183ZM818.572 18.5149C820.375 18.5149 822.23 18.1603 822.23 16.0835C822.23 14.2094 820.534 13.7029 818.837 13.7029H815.975V18.5149H818.572ZM818.943 26.3154C820.852 26.3154 822.707 25.9102 822.707 23.6815C822.707 21.4527 821.117 21.0475 819.155 21.0475H815.922V26.3154H818.943Z" fill="#9A9A9A"/>
<path d="M835.955 29C830.444 29 828 25.4486 828 20.1459C828 14.8432 830.732 11 836.147 11C839.55 11 842.856 12.5568 842.952 16.4486H839.118C838.927 14.6973 837.776 13.8216 836.147 13.8216C832.792 13.8216 831.786 17.4703 831.786 20.2432C831.786 23.0162 832.792 26.227 836.003 26.227C837.681 26.227 838.927 25.3027 839.166 23.5514H843C842.617 27.5405 839.502 29 835.955 29Z" fill="#9A9A9A"/>
</g>
<g clip-path="url(#clip4_928_5818)">
<path d="M1054.57 15.347C1053.87 14.073 1052.38 13.1068 1050.76 13.1068C1049.33 13.1068 1048.07 13.6997 1048.07 15.2369C1048.07 16.5314 1049.65 17.4094 1051.3 18.4857C1053.09 19.627 1054.96 21.0308 1054.96 23.4686C1054.96 26.6518 1051.9 28.6047 1048.37 28.6047C1046.92 28.6047 1045.41 28.3196 1043.7 27.6611L1043.98 23.4242C1044.8 25.1153 1046.34 26.4535 1048.61 26.4535C1050.37 26.4535 1051.67 25.598 1051.67 24.1046C1051.67 22.8313 1050.6 22.0415 1049.31 21.2517C1046.58 19.5839 1044.84 18.2436 1044.84 15.8298C1044.84 12.2069 1047.83 11 1050.93 11C1052.73 11 1053.85 11.3296 1055 11.3296L1054.57 15.347ZM1039.43 19.1435C1039.04 19.8027 1038.54 20.7012 1038.24 21.3611C1037.98 22.6118 1037.85 24.281 1037.85 26.1239C1037.85 26.8925 1037.98 27.9236 1038.33 28.2751H1033.8C1034.6 27.5072 1034.93 22.789 1034.88 21.2955C1034.28 19.1668 1033.45 17.1249 1032.2 14.644C1031.4 13.0863 1030.46 11.614 1029.88 11.3296C1030.9 11.2428 1032.2 11.1765 1032.83 11.1765C1033.95 11.1765 1034.26 11.3296 1034.95 12.8668C1036.03 15.3477 1036.83 17.2117 1037.31 18.5958C1038.46 16.7734 1039.26 15.5227 1040.3 13.8105C1040.56 13.3934 1040.77 12.8668 1040.77 12.3615C1040.77 11.9655 1040.71 11.5272 1040.53 11.3296H1045.02C1044.15 11.5272 1040.25 17.7397 1039.43 19.1435ZM1023.69 15.3039L1021 21.2073H1025.38L1023.69 15.3039ZM1028.95 28.4283C1027.52 28.4283 1027.41 28.3852 1026.26 24.3904L1025.85 22.9195C1025.16 23.2484 1023.92 23.4023 1021.95 23.4023H1019.96L1019.62 24.1483C1019.12 25.2691 1018.45 26.584 1018.45 27.5079C1018.45 27.7274 1018.47 27.9681 1018.55 28.2758H1006.73C1007.4 27.5079 1007.62 25.0277 1007.94 20.5269L1008.01 19.4519C1008.18 16.8835 1008.31 14.908 1008.29 13.526C1008.27 12.3848 1008.16 11.6599 1007.86 11.331H1012.43C1011.78 11.8364 1011.54 14.5572 1011.24 19.0581L1011.15 20.133C1011.04 21.8016 1010.82 23.5131 1010.82 25.1816C1010.82 25.9488 1011.13 26.1246 1011.91 26.1246C1014.68 26.1246 1015.37 26.0589 1016.63 25.2028C1017.41 23.7538 1018.3 21.9314 1019.16 20.0441L1020.33 17.5201C1021.44 15.1494 1022.52 12.7342 1022.52 12.274C1022.52 11.9437 1022.43 11.6373 1022.3 11.3296H1025.94C1025.94 11.3296 1027.41 16.8616 1027.74 18.046L1028.45 20.7245C1029.68 25.2247 1030.47 27.419 1031.51 28.2751C1030.64 28.3852 1029.4 28.4283 1028.95 28.4283ZM999.476 28.6047C995.166 28.6047 992.676 25.0052 992.676 20.9666C992.676 15.3477 995.685 11 1001.42 11C1003.22 11 1004.07 11.3296 1005.52 11.3296L1005.08 15.654C1004.26 14.1394 1002.92 13.1075 1001.12 13.1075C997.549 13.1075 996.097 17.0155 996.097 20.3737C996.097 24.017 998.112 26.0137 1000.8 26.0137C1002.25 26.0137 1003.52 25.6185 1005.67 24.1046C1004.8 26.9151 1002.79 28.6047 999.476 28.6047ZM984.534 13.3934C984.122 13.3934 983.623 13.3934 983.234 13.4371C983.104 14.1613 982.996 15.4127 982.844 17.4312L982.757 18.6177C982.975 18.6621 983.255 18.6847 983.516 18.6847C985.594 18.6847 987.024 17.4101 987.024 15.4797C987.024 14.1613 986.115 13.3934 984.534 13.3934ZM990.575 29C989.341 29 989.037 28.8017 988.626 28.2307L983.948 21.6456C983.58 21.1409 983.299 20.7238 982.714 20.7238H982.606L982.52 21.997C982.411 23.7312 982.346 25.1153 982.346 26.1464C982.368 27.2877 982.498 27.9893 982.801 28.2751H978.275C978.924 27.6823 979.162 25.7067 979.531 20.5262L979.596 19.4512C979.769 16.9054 979.9 14.9292 979.877 13.5472C979.855 12.3396 979.726 11.5929 979.4 11.3296H985.572C987.586 11.3296 990.358 11.6818 990.358 14.9955C990.358 17.7164 988.56 19.2099 986.33 19.9114C986.547 20.1097 986.936 20.6144 987.175 20.9221L990.575 25.4879C992.697 28.3196 992.87 28.4509 993.629 28.8461C992.676 28.9555 991.398 29 990.575 29ZM969.484 15.3039L966.775 21.2073H971.171L969.484 15.3039ZM974.745 28.4283C973.316 28.4283 973.208 28.3852 972.06 24.3904L971.649 22.9195C970.954 23.2484 969.72 23.4023 967.75 23.4023H965.758L965.411 24.1483C965.065 24.9395 964.22 26.5643 964.242 27.5079C964.242 27.7274 964.263 27.9469 964.35 28.2758H960.344C961.492 27.1127 962.943 24.413 964.957 20.0448L966.127 17.5209C967.187 15.2383 968.314 12.648 968.314 12.2747C968.314 11.9444 968.228 11.638 968.097 11.3303H971.736C971.736 11.3303 972.688 14.9962 973.533 18.0467L974.247 20.7252C975.482 25.2254 976.261 27.4197 977.301 28.2758C976.37 28.3852 975.2 28.4283 974.745 28.4283ZM954.128 13.3715C953.803 13.3715 953.37 13.3715 952.959 13.416C952.785 14.601 952.677 15.7422 952.591 16.9929C952.591 16.9929 952.526 18.0679 952.526 18.0241H952.959C955.081 18.0241 957.031 17.2781 957.031 15.3039C957.031 14.1613 956.099 13.3715 954.128 13.3715ZM953.587 20.0879H952.397L952.223 22.5899C952.137 23.6881 952.093 24.6092 952.072 25.7068C952.072 25.8613 952.548 26.1902 953.673 26.1902C956.012 26.1902 957.55 25.0052 957.55 23.0508C957.55 20.8777 955.796 20.0879 953.587 20.0879ZM953.847 28.2751H948C948.737 27.6159 948.932 25.0482 949.256 20.5262L949.321 19.4731C949.495 16.9047 949.625 14.9292 949.603 13.5472C949.581 12.3615 949.451 11.5929 949.126 11.3296H955.666C957.225 11.3296 960.344 11.4178 960.344 14.7097C960.344 16.9047 958.33 18.2655 956.489 18.7497C959.088 19.0129 961.037 20.2855 961.037 23.0071C961.036 25.9481 958.308 28.2751 953.847 28.2751Z" fill="#9A9A9A"/>
<path d="M920.142 0.00256695C919.091 0.00256695 918.873 0.187381 918.532 0.570991C918.392 0.562538 918.252 0.558709 918.112 0.559518C917.303 0.559518 916.265 0.679301 915.38 1.27702C914.524 1.8467 914.118 2.85477 914.574 3.59268C914.574 3.59268 914.879 3.14028 915.885 3.14028C916.026 3.14028 916.183 3.15554 916.35 3.16956C917.739 3.33524 918.767 4.07316 918.642 6.0218C918.531 7.96916 917.807 10.1408 914.847 10.1663C914.847 10.1663 914.465 10.1663 914.058 10.1281C912.68 9.97644 912.247 9.10342 912.247 9.10342C912.247 9.10342 913.438 8.77716 913.448 7.25164C913.438 6.21424 912.543 5.26479 911.25 4.88118C910.804 4.75404 910.342 4.6914 909.879 4.69511C908.355 4.69511 906.645 5.3387 905.492 6.85785C902.877 10.3409 902.665 15.4183 903.303 20.1402C903.944 24.8722 906.919 29.2551 907.006 29.3749C907.069 29.459 907.126 29.5049 907.191 29.5049C907.229 29.5025 907.265 29.4867 907.293 29.4603C908.578 28.2024 909.803 26.4832 910.327 25.3336C910.888 25.7848 910.595 26.7444 910.287 27.7691C909.994 28.8167 909.281 30.2071 909.023 30.6557C908.775 31.0941 908.441 31.6039 908.89 31.8702C908.942 31.9005 909.002 31.9155 909.063 31.9136C909.639 31.9136 910.994 30.9004 912.506 28.8664C914.199 26.5775 915.057 24.546 915.057 24.546C915.181 24.574 915.388 24.7856 915.354 25.3616C915.332 25.9466 914.735 28.1234 913.575 30.1497C912.401 32.1749 911.317 33.4417 911.099 33.7297C910.964 33.8967 911.079 34.0012 911.166 34.0687C911.252 34.1273 913.327 36.0823 916.342 37.734C919.914 39.6546 921.498 40 921.498 40C921.498 40 923.078 39.6635 926.651 37.7442C929.664 36.09 931.749 34.126 931.826 34.0598C931.913 33.9999 932.024 33.9055 931.893 33.722C931.687 33.4467 930.599 32.1736 929.428 30.1485C928.271 28.1361 927.652 25.9453 927.643 25.368C927.619 24.7856 927.814 24.5931 927.933 24.5447C927.933 24.5447 928.8 26.5889 930.493 28.8651C932.013 30.9017 933.355 31.9123 933.934 31.9123C933.996 31.9144 934.058 31.8994 934.113 31.869C934.548 31.6026 934.224 31.0852 933.969 30.6519C933.732 30.2058 933.009 28.8243 932.702 27.7678C932.408 26.7317 932.102 25.7733 932.673 25.3323C933.199 26.4819 934.415 28.21 935.703 29.4501C935.717 29.4661 935.735 29.4791 935.754 29.4883C935.773 29.4975 935.793 29.5027 935.815 29.5036C935.871 29.5036 935.932 29.459 935.985 29.3812C936.08 29.2538 939.06 24.8786 939.696 20.1389C940.335 15.4069 940.124 10.3409 937.507 6.85656C936.362 5.33359 934.639 4.68617 933.105 4.68617C932.626 4.68617 932.169 4.74863 931.751 4.8697C930.449 5.26478 929.557 6.22319 929.565 7.2504C929.565 8.77592 930.762 9.10214 930.762 9.10214C930.762 9.10214 930.362 9.9535 928.934 10.1268C928.678 10.1589 928.42 10.175 928.161 10.1752C927.088 10.1752 926.183 9.83115 925.35 8.64336C924.541 7.50017 924.568 5.14628 924.521 4.36121C924.484 3.56468 924.315 1.7779 923.485 1.04891C922.658 0.300807 921.65 0.0497037 920.393 0C920.301 0.00254891 920.219 0.00256695 920.142 0.00256695Z" fill="#9A9A9A"/>
</g>
<g clip-path="url(#clip5_928_5818)">
<path d="M1165 28.0336C1165.06 27.0067 1165.18 26.3423 1165.48 25.4966C1166.87 26.1611 1168.67 26.4631 1170 26.4631C1172.29 26.4631 1173.61 25.7383 1173.61 24.2282C1173.61 22.7785 1172.65 22.1141 1170.36 21.0872L1169.09 20.604C1166.75 19.5772 1165.18 18.2483 1165.18 15.651C1165.18 12.8121 1167.17 11 1171.14 11C1172.77 11 1174.27 11.2416 1175.66 11.7248C1175.6 12.6913 1175.42 13.4765 1175.18 14.2013C1173.85 13.7181 1172.23 13.4765 1171.08 13.4765C1168.91 13.4765 1167.95 14.3221 1167.95 15.651C1167.95 16.9195 1168.91 17.7047 1170.66 18.4295L1171.98 18.9732C1175.12 20.302 1176.44 21.7517 1176.44 24.1678C1176.44 27.0067 1174.27 29 1170.06 29C1168.07 29 1166.38 28.698 1165 28.0336ZM1189.75 16.1342V28.5772H1187.22L1187.1 27.0671C1186.38 28.1544 1185.35 28.8792 1183.61 28.8792C1180.35 28.8792 1178.13 26.4631 1178.13 22.2953C1178.13 17.9463 1180.48 15.4094 1185.05 15.4094C1186.86 15.4698 1188.36 15.651 1189.75 16.1342ZM1187.04 25.7383V17.9463C1186.5 17.8255 1185.83 17.8255 1185.05 17.8255C1182.22 17.8255 1180.9 19.5772 1180.9 22.3557C1180.9 24.8926 1181.92 26.7047 1184.33 26.7047C1185.47 26.6443 1186.32 26.2819 1187.04 25.7383ZM1203.72 20.2416V28.5772H1201.01V20.7248C1201.01 18.7315 1200.35 17.8255 1197.64 17.8255C1196.97 17.8255 1196.25 17.8859 1195.47 18.0067V28.5772H1192.76V16.1342C1194.51 15.7114 1196.43 15.4094 1197.7 15.4094C1202.27 15.4698 1203.72 17.2215 1203.72 20.2416ZM1211.31 26.5839C1212.09 26.5839 1212.87 26.4631 1213.41 26.2215C1213.35 26.9463 1213.23 27.7919 1213.11 28.5168C1212.39 28.8188 1211.55 28.9396 1210.82 28.9396C1208.17 28.9396 1206.49 27.7315 1206.49 24.7114V11.604C1207.33 11.302 1208.35 11.1812 1209.2 11.1812V15.8926H1213.53C1213.47 16.7383 1213.41 17.5235 1213.29 18.2483H1209.2V24.349C1209.2 25.9195 1209.98 26.5839 1211.31 26.5839ZM1225.94 16.1342V28.5772H1223.41L1223.29 27.0671C1222.57 28.1544 1221.54 28.8792 1219.8 28.8792C1216.54 28.8792 1214.32 26.4631 1214.32 22.2953C1214.32 17.9463 1216.66 15.4094 1221.24 15.4094C1223.05 15.4698 1224.49 15.651 1225.94 16.1342ZM1223.17 25.7383V17.9463C1222.63 17.8255 1221.96 17.8255 1221.18 17.8255C1218.35 17.8255 1217.03 19.5772 1217.03 22.3557C1217.03 24.8926 1218.05 26.7047 1220.46 26.7047C1221.6 26.6443 1222.51 26.2819 1223.17 25.7383ZM1239.91 20.2416V28.5772H1237.14V20.7248C1237.14 18.7315 1236.48 17.8255 1233.77 17.8255C1233.1 17.8255 1232.38 17.8859 1231.6 18.0067V28.5772H1228.89V16.1342C1230.63 15.7114 1232.56 15.4094 1233.83 15.4094C1238.4 15.4698 1239.91 17.2215 1239.91 20.2416ZM1253.7 11.1812V28.5772H1251.17L1251.05 27.0067C1250.32 28.1544 1249.3 28.8792 1247.49 28.8792C1244.24 28.8792 1242.02 26.4631 1242.02 22.2953C1242.02 17.9463 1244.36 15.4094 1248.94 15.4094C1249.66 15.4094 1250.32 15.4698 1250.99 15.5906V11.4832C1251.83 11.2416 1252.79 11.1812 1253.7 11.1812ZM1250.99 25.7383V18.0671C1250.26 17.9463 1249.54 17.8255 1248.82 17.8255C1246.11 17.8255 1244.85 19.5168 1244.85 22.3557C1244.85 24.8926 1245.87 26.7047 1248.28 26.7047C1249.36 26.6443 1250.26 26.2819 1250.99 25.7383ZM1267.43 23.2617H1258.69C1259.06 25.4966 1260.32 26.5235 1262.79 26.5235C1264.29 26.5235 1265.8 26.2215 1267.12 25.557C1267 26.2819 1266.88 27.2483 1266.7 28.0336C1265.44 28.5772 1264.17 28.8188 1262.67 28.8188C1258.09 28.8188 1255.92 26.2819 1255.92 22.0537C1255.92 18.3691 1257.61 15.4094 1261.95 15.4094C1265.86 15.4094 1267.55 17.9463 1267.55 21.0872C1267.55 21.9329 1267.55 22.5369 1267.43 23.2617ZM1258.69 20.9664H1264.84C1264.84 18.9128 1263.75 17.7047 1261.89 17.7047C1259.9 17.7651 1258.88 18.8523 1258.69 20.9664ZM1277 15.5906C1277 16.4362 1276.88 17.4027 1276.76 17.9463C1276.1 17.8859 1275.49 17.8255 1274.71 17.8255C1274.05 17.8255 1273.39 17.8859 1272.72 17.9463V28.5772H1270.02V16.1342C1271.16 15.7114 1273.15 15.4094 1274.65 15.4094C1275.43 15.4698 1276.4 15.4698 1277 15.5906Z" fill="#9A9A9A"/>
<path d="M1145.2 18.4096C1145.11 16.9639 1144.73 15.5181 1143.96 14.2651L1137.44 2.79518C1136.96 1.92771 1136.57 0.963855 1136.38 0L1136.1 0.481928C1134.47 3.27711 1134.47 6.84337 1136.1 9.63855L1141.37 18.7952C1143 21.5904 1143 25.1566 1141.37 27.9518L1141.08 28.4337C1140.89 27.4699 1140.51 26.506 1140.03 25.6386L1135.23 17.253L1132.16 11.8554C1131.68 10.988 1131.3 10.0241 1131.11 9.06024L1130.82 9.54217C1129.19 12.3374 1129.19 15.8072 1130.82 18.6988L1136.1 27.8554C1137.73 30.6506 1137.73 34.2169 1136.1 37.012L1135.81 37.494C1135.62 36.5301 1135.23 35.5663 1134.75 34.6988L1128.14 23.2289C1127.27 21.6867 1126.89 19.9518 1126.89 18.2169C1119.89 20.0482 1115 24 1115 28.5301C1115 34.8916 1124.4 40 1136 40C1147.6 40 1157 34.8916 1157 28.5301C1157.09 24.1928 1152.3 20.241 1145.2 18.4096Z" fill="#9A9A9A"/>
</g>
<path fill-rule="evenodd" clip-rule="evenodd" d="M1405.21 9H1409.13V30.8152H1405.21V9ZM1437 18.1908V14.8055H1432.94V10.3918H1429.01V26.483C1429.01 27.9615 1429.39 29.0883 1430.12 29.8321C1430.86 30.5765 1432.01 30.9539 1433.53 30.9539H1437V27.5686H1434.46C1433.91 27.5686 1433.52 27.4478 1433.29 27.2093C1433.08 26.991 1432.94 26.4397 1432.94 25.8048V18.1908H1437ZM1378.54 26.5691L1382.6 14.8051H1386.72L1380.86 30.8154H1376.21L1370.35 14.8051H1374.48L1378.54 26.5691ZM1422.62 22.8256C1422.62 23.8391 1422.46 24.7209 1422.16 25.4464C1421.86 26.1679 1421.42 26.7211 1420.87 27.09C1420.32 27.459 1419.64 27.6462 1418.86 27.6462C1417.74 27.6462 1416.89 27.2788 1416.34 26.5546C1415.79 25.8226 1415.51 24.7134 1415.51 23.2577V14.8055H1411.58V23.6899C1411.58 25.0733 1411.76 26.2466 1412.1 27.1769C1412.44 28.1101 1412.91 28.8692 1413.5 29.4326C1414.08 29.9955 1414.77 30.402 1415.53 30.6413C1416.29 30.8794 1417.11 31 1417.96 31C1419.19 31 1420.2 30.7783 1420.98 30.341C1421.69 29.9409 1422.28 29.4732 1422.74 28.9487L1423.09 30.8151H1426.54V14.8055H1422.62V22.8256ZM1399.2 15.6498C1397.97 14.9666 1396.5 14.6205 1394.84 14.6205C1393.2 14.6205 1391.74 14.9666 1390.49 15.6496C1389.24 16.3343 1388.26 17.3013 1387.57 18.5236C1386.89 19.7448 1386.54 21.1923 1386.54 22.8256C1386.54 24.4388 1386.89 25.8762 1387.57 27.0974C1388.26 28.3193 1389.24 29.2861 1390.49 29.9707C1391.74 30.6537 1393.2 30.9998 1394.84 30.9998C1396.5 30.9998 1397.97 30.6537 1399.2 29.9705C1400.44 29.2862 1401.42 28.3195 1402.11 27.0974C1402.79 25.8755 1403.14 24.4382 1403.14 22.8256C1403.14 21.1929 1402.79 19.7454 1402.11 18.5235C1401.42 17.3011 1400.44 16.334 1399.2 15.6498ZM1397.13 27.0892C1396.5 27.4993 1395.73 27.7074 1394.84 27.7074C1393.97 27.7074 1393.2 27.4994 1392.56 27.089C1391.92 26.6782 1391.41 26.0983 1391.06 25.3653C1390.71 24.6316 1390.53 23.7773 1390.53 22.8256C1390.53 21.8543 1390.71 20.995 1391.06 20.2712C1391.41 19.5481 1391.92 18.9681 1392.56 18.5469C1393.21 18.1262 1393.97 17.9129 1394.84 17.9129C1395.73 17.9129 1396.5 18.1262 1397.13 18.5464C1397.76 18.9679 1398.26 19.5481 1398.62 20.2714C1398.97 20.9969 1399.15 21.8563 1399.15 22.8256C1399.15 23.7751 1398.97 24.6298 1398.62 25.3653C1398.26 26.0985 1397.76 26.6784 1397.13 27.0892ZM1341.08 14.3839H1337V30.8154H1341.08V14.3839ZM1353.88 15.3235C1353.88 11.8369 1351.02 9.00024 1347.52 9.00024H1337V12.5093H1347.02C1348.61 12.5093 1349.92 13.7501 1349.95 15.2752C1349.96 16.0388 1349.68 16.7595 1349.14 17.3045C1348.6 17.8496 1347.88 18.1501 1347.12 18.1501H1343.21C1343.08 18.1501 1342.96 18.2622 1342.96 18.4003V21.519C1342.96 21.572 1342.98 21.6227 1343.01 21.6654L1349.63 30.8155H1354.48L1347.84 21.6404C1351.19 21.4732 1353.88 18.676 1353.88 15.3235ZM1366.42 15.5566C1365.25 14.9354 1363.85 14.6205 1362.27 14.6205C1360.69 14.6205 1359.28 14.9668 1358.08 15.6502C1356.87 16.3343 1355.92 17.3015 1355.25 18.5244C1354.59 19.7446 1354.25 21.2022 1354.25 22.8568C1354.25 24.4695 1354.59 25.9064 1355.27 27.1278C1355.95 28.352 1356.92 29.3138 1358.17 29.9864C1359.42 30.6591 1360.91 31 1362.61 31C1363.96 31 1365.18 30.7482 1366.22 30.251C1367.26 29.7527 1368.11 29.074 1368.74 28.2338C1369.35 27.4353 1369.75 26.5321 1369.95 25.5497L1369.97 25.4449H1366.07L1366.05 25.5078C1365.84 26.2406 1365.42 26.8197 1364.81 27.2292C1364.16 27.6695 1363.36 27.8929 1362.43 27.8929C1361.64 27.8929 1360.93 27.725 1360.32 27.3937C1359.7 27.0644 1359.23 26.5935 1358.89 25.9935C1358.56 25.3914 1358.37 24.667 1358.33 23.8448V23.7162H1370.13L1370.14 23.6444C1370.18 23.4191 1370.21 23.1868 1370.22 22.9533C1370.23 22.7257 1370.23 22.4984 1370.23 22.269C1370.21 20.7178 1369.86 19.3534 1369.2 18.2133C1368.53 17.0718 1367.6 16.1779 1366.42 15.5566ZM1364.99 18.5717C1365.66 19.1339 1366.08 19.9328 1366.23 20.9479H1358.47C1358.56 20.2893 1358.78 19.7189 1359.12 19.251C1359.48 18.7602 1359.95 18.3745 1360.5 18.1048C1361.05 17.8342 1361.66 17.6968 1362.3 17.6968C1363.39 17.6967 1364.3 17.9911 1364.99 18.5717Z" fill="#9A9A9A"/>
<g clip-path="url(#clip6_928_5818)">
<path d="M1529.61 14.896C1529.37 10.7857 1527.47 6.92983 1524.34 4.14907C1521.2 1.3683 1517.07 -0.117731 1512.82 0.00729561C1508.57 0.132322 1504.54 1.85852 1501.59 4.81847C1498.63 7.77842 1496.99 11.7384 1497 15.8553C1496.98 19.9361 1498.63 23.8579 1501.59 26.7686L1512.35 14.9003H1529.6L1529.61 14.896ZM1519.26 40H1540V26.8554L1529.6 14.9003L1519.25 26.8554V40H1519.26Z" fill="#9A9A9A"/>
<path d="M1644.55 28.6508H1640.6V16.4824H1644.55V28.653V28.6508ZM1640.38 13.1965C1640.38 12.762 1640.51 12.3374 1640.75 11.9762C1640.99 11.615 1641.34 11.3334 1641.74 11.1672C1642.14 11.001 1642.58 10.9575 1643.01 11.0422C1643.43 11.127 1643.82 11.3361 1644.13 11.6433C1644.44 11.9505 1644.65 12.3419 1644.73 12.768C1644.81 13.194 1644.77 13.6357 1644.6 14.037C1644.44 14.4384 1644.16 14.7814 1643.8 15.0227C1643.44 15.2641 1643.01 15.3929 1642.58 15.3929C1642.29 15.4064 1641.99 15.3587 1641.72 15.253C1641.45 15.1472 1641.2 14.9857 1641 14.7788C1640.79 14.5719 1640.63 14.3241 1640.52 14.0513C1640.42 13.7785 1640.37 13.4866 1640.38 13.1943L1640.38 13.1965ZM1590.08 16.4911V28.6596H1586.13V16.4911H1590.08ZM1585.91 13.1965C1585.91 12.762 1586.04 12.3374 1586.28 11.9762C1586.52 11.615 1586.86 11.3334 1587.26 11.1672C1587.66 11.001 1588.1 10.9575 1588.53 11.0422C1588.96 11.127 1589.35 11.3361 1589.65 11.6433C1589.96 11.9505 1590.17 12.3419 1590.25 12.768C1590.34 13.194 1590.29 13.6357 1590.13 14.037C1589.96 14.4384 1589.68 14.7814 1589.32 15.0227C1588.96 15.2641 1588.54 15.3929 1588.1 15.3929C1587.81 15.407 1587.52 15.3598 1587.24 15.2543C1586.97 15.1489 1586.72 14.9875 1586.52 14.7805C1586.31 14.5736 1586.15 14.3255 1586.04 14.0524C1585.94 13.7792 1585.89 13.487 1585.9 13.1943L1585.91 13.1965ZM1580.96 16.4911V13.4952H1578.41L1578.11 14.7296C1577.81 15.852 1577.45 16.4868 1576.23 16.7064L1575.36 16.8448V19.2609H1577.06V25.411C1577.06 28.15 1578.84 29 1580.82 29C1582.41 29 1583.45 28.6178 1584.36 27.9303V25.4C1583.75 25.7029 1583.07 25.8714 1582.39 25.8942C1581.46 25.8942 1580.96 25.4549 1580.96 24.416V19.2499H1584.2V16.4802H1580.95L1580.96 16.4911ZM1551.96 28.6508V22.5666C1551.96 20.5897 1552.84 19.3334 1554.37 19.3334C1555.74 19.3334 1556.4 20.2361 1556.4 22.0438V28.6486H1560.35V20.9236C1560.35 17.8266 1558.73 16.1529 1556.07 16.1529C1553.84 16.1529 1552.44 17.3324 1551.95 19.1423V16.4802H1548V28.6508H1551.96Z" fill="#9A9A9A"/>
<path d="M1598.32 16.1441C1594.34 16.1441 1591.74 18.8304 1591.74 22.6391C1591.74 26.4477 1594.35 28.9693 1598.32 28.9693C1602.3 28.9693 1604.99 26.4477 1604.99 22.6391C1604.99 18.8304 1602.33 16.1441 1598.32 16.1441ZM1598.32 25.9272C1596.65 25.9272 1595.6 24.7191 1595.6 22.6325C1595.6 20.5459 1596.64 19.1797 1598.32 19.1797C1600 19.1797 1601.12 20.5502 1601.12 22.6325C1601.12 24.7147 1600 25.936 1598.32 25.936V25.9272Z" fill="#9A9A9A"/>
<path d="M1610.35 28.6507H1606.4V16.4823H1610.35V19.1422C1610.84 17.3345 1612.24 16.155 1614.47 16.155C1617.13 16.155 1618.75 17.8265 1618.75 20.9257V28.6529H1614.8V22.0481C1614.8 20.2404 1614.14 19.3377 1612.77 19.3377C1611.23 19.3377 1610.36 20.5963 1610.36 22.5709V28.6639L1610.35 28.6507ZM1633.56 24.4313H1633.45L1631.44 16.4845H1627.71L1625.68 24.4313H1625.57L1623.45 16.4845H1619.5L1623.1 28.6507H1627.3L1629.33 20.7566H1629.44L1631.47 28.6463H1635.67L1639.29 16.4779H1635.7L1633.55 24.4247L1633.56 24.4313Z" fill="#9A9A9A"/>
<path d="M1651.8 16.1439C1648.62 16.1439 1646.25 18.6106 1646.25 22.5554C1646.25 26.5003 1648.62 28.9669 1651.8 28.9669C1653.5 28.9669 1655.21 28.0356 1655.83 26.4739V28.6374H1659.81V11.4765H1655.83V18.6765C1655.23 17.1148 1653.53 16.1439 1651.8 16.1439ZM1653.06 19.2695C1654.73 19.2695 1655.83 20.5039 1655.83 22.4192V22.6916C1655.83 24.6377 1654.74 25.8699 1653.06 25.8699C1651.38 25.8699 1650.26 24.5849 1650.26 22.5532C1650.26 20.5215 1651.36 19.2585 1653.06 19.2585V19.2695ZM1673.68 25.3954C1672.84 27.6754 1670.79 28.9844 1667.91 28.9844C1664.04 28.9844 1661.28 26.6211 1661.28 22.7487C1661.28 18.8763 1664.1 16.1439 1667.84 16.1439C1671.88 16.1439 1674 18.9115 1674 22.2369V23.445H1665.2C1665.31 25.066 1666.51 26.0017 1668.05 26.0017C1669.33 26.0017 1670.15 25.5624 1670.62 24.5849L1673.69 25.4064L1673.68 25.3954ZM1665.25 21.3188H1670.17C1670.09 20.1107 1669.32 19.0103 1667.8 19.0103C1666.22 19.0213 1665.47 20.0405 1665.25 21.3298L1665.25 21.3188ZM1566.23 21.7581C1563.53 22.1974 1561.77 23.2715 1561.77 25.6041C1561.77 27.6907 1563.3 28.9273 1565.76 28.9273C1567.66 28.9273 1569.17 28.1849 1569.85 26.7836C1570.21 28.1564 1571.28 28.9273 1572.74 28.9273C1573.67 28.9611 1574.58 28.6801 1575.33 28.13V26.028C1575.01 26.1796 1574.66 26.2548 1574.31 26.2477C1573.82 26.2477 1573.54 25.9709 1573.54 25.3405V20.8883C1573.54 17.5651 1571.26 16.1352 1568.06 16.1352C1564.86 16.1352 1562.87 17.721 1562.3 20.0602L1565.89 20.8026C1566.11 19.801 1566.69 19.1048 1567.84 19.1048C1569.05 19.1048 1569.63 19.7945 1569.63 20.9454V21.2222L1566.21 21.7713L1566.23 21.7581ZM1565.62 25.1758C1565.62 24.2137 1566.39 23.8865 1567.63 23.6624L1569.63 23.3066V23.7723C1569.63 25.5053 1568.48 26.3289 1567.02 26.3289C1566.17 26.3289 1565.62 25.8896 1565.62 25.1758Z" fill="#9A9A9A"/>
</g>
<g clip-path="url(#clip7_928_5818)">
<path d="M1767.76 17.0925C1767.61 19.4528 1767 21.5649 1765.71 23.8625C1764.19 26.5627 1761.8 28.5519 1759.52 29.574C1759.12 29.7517 1758.74 29.8171 1758.41 29.7517C1758.06 29.6838 1757.8 29.4564 1757.66 29.1479C1757.51 28.8447 1757.53 28.4683 1757.67 28.1755C1757.81 27.8697 1758.08 27.6528 1758.53 27.4332C1760.91 26.2491 1762.49 24.9212 1763.95 22.715C1765.2 20.8199 1766.06 18.2531 1766.29 15.8273C1766.33 15.4823 1766.38 15.2366 1766.51 15.0824C1766.62 14.949 1766.78 14.8785 1766.99 14.902C1767.52 14.9621 1767.85 15.6104 1767.76 17.0925ZM1753.92 28.7584C1751.53 28.9493 1749.25 28.3271 1747.67 26.8973C1746.33 25.6871 1745.61 24.0481 1745.55 22.1844C1745.53 20.0436 1746.12 18.3132 1747.37 16.7344C1749.5 14.0368 1753.18 12.5442 1757.16 12.7795C1757.61 12.8082 1757.96 12.7559 1758.22 12.5939C1758.5 12.4214 1758.67 12.1234 1758.7 11.7261C1758.73 11.3993 1758.63 11.0595 1758.39 10.8243C1758.17 10.6021 1757.82 10.474 1757.34 10.4426C1752.56 10.1472 1748.16 11.9927 1745.52 15.3202C1743.86 17.4192 1743.19 19.5208 1743.18 22.7386C1743.17 25.3368 1743.18 34.5535 1743.18 37.0655C1743.18 38.2026 1743.58 38.7933 1744.21 38.9815C1744.66 39.1148 1745.01 38.9998 1745.22 38.762C1745.41 38.5293 1745.52 38.2104 1745.52 37.6589C1745.52 35.0476 1745.52 29.9948 1745.52 28.2461C1747.58 30.5621 1751.45 31.4586 1754.12 31.111C1754.57 31.0509 1754.92 30.9385 1755.15 30.7215C1755.41 30.4784 1755.52 30.1595 1755.48 29.7491C1755.45 29.4119 1755.28 29.1166 1755.03 28.9388C1754.79 28.7689 1754.5 28.7114 1753.92 28.7584ZM1761.8 6.23158C1761.29 5.748 1760.73 5.62514 1760.32 5.86824C1760.11 5.99371 1759.99 6.21066 1759.96 6.43285C1759.93 6.72038 1760.03 7.04189 1760.29 7.4549C1761.79 9.83619 1762.45 13.2029 1761.2 16.9278C1760.22 19.8319 1758.32 21.9309 1755.85 23.0209C1753.26 24.1658 1751.37 23.6822 1750.83 22.6105C1750.37 21.6904 1750.6 20.224 1752.14 19.1235C1753.19 18.3707 1754.68 17.9943 1756.01 18.0805C1756.57 18.1171 1756.86 18.0283 1757.1 17.8845C1757.36 17.7224 1757.53 17.4297 1757.58 17.0402C1757.62 16.6455 1757.48 16.2534 1757.19 16.0234C1756.96 15.843 1756.67 15.7437 1756.24 15.7123C1754.36 15.5738 1752.3 16.1358 1750.8 17.2075C1748.52 18.8333 1747.68 21.5152 1748.76 23.6639C1749.31 24.7748 1750.4 25.6322 1752.03 25.8988C1753.32 26.1079 1754.97 25.9537 1756.79 25.1643C1759.86 23.8286 1762.22 21.2721 1763.41 17.7381C1764.96 13.1559 1764.03 8.3384 1761.8 6.23158ZM1766.94 31.1319C1770.52 26.6098 1772.1 21.1702 1771.99 16.3318C1771.87 11.0909 1769.68 6.41194 1766.04 3.48433C1762.18 0.381594 1757.28 -0.640454 1752.29 0.384207C1747.21 1.42455 1742.6 4.3783 1739.05 8.87165C1736.24 12.4266 1734.25 17.2127 1734.03 21.9753C1733.82 26.3013 1734.8 30.2824 1737.35 33.7877C1738.22 34.9874 1739.21 35.8945 1739.62 36.2474C1739.9 36.4852 1740.15 36.595 1740.43 36.5819C1740.72 36.5689 1740.98 36.433 1741.16 36.1899C1741.32 35.9781 1741.37 35.7089 1741.34 35.471C1741.3 35.1939 1741.15 34.9509 1740.87 34.7156C1740.55 34.4385 1739.7 33.6726 1738.93 32.614C1736.71 29.5557 1735.79 26.2203 1735.98 22.1452C1736.18 17.9368 1737.91 13.4826 1740.58 10.1133C1743.87 5.9545 1748.08 3.27522 1752.67 2.33159C1757.09 1.42455 1761.43 2.31852 1764.8 5.03439C1767.97 7.58036 1769.92 11.7051 1770.03 16.3762C1770.14 20.9715 1768.57 25.891 1765.33 29.987C1761.25 35.1443 1755.5 38.051 1749.7 38.0222C1749.35 38.0196 1749.24 38.0144 1748.88 37.9856C1748.47 37.9543 1748.19 38.0039 1747.98 38.1608C1747.78 38.3071 1747.64 38.5476 1747.62 38.8717C1747.6 39.1828 1747.7 39.4756 1747.91 39.669C1748.11 39.8494 1748.38 39.9252 1748.77 39.9644C1749 39.9879 1749.21 39.9957 1749.45 39.9984C1755.96 40.082 1762.33 36.9714 1766.94 31.1319ZM1757.81 32.6767C1757.72 32.533 1757.58 32.4728 1757.41 32.4728C1757.26 32.4728 1757.09 32.5277 1756.87 32.6166C1754.61 33.5393 1751.89 33.8373 1749.12 33.3145C1748.72 33.2413 1748.44 33.2649 1748.22 33.406C1748.03 33.5341 1747.88 33.7354 1747.82 33.9889C1747.75 34.3366 1747.86 34.6293 1748.04 34.828C1748.2 35.0031 1748.44 35.1025 1748.69 35.16C1749.35 35.3116 1750.22 35.39 1751.04 35.39C1753.44 35.39 1756.12 34.7705 1757.45 33.6988C1757.89 33.3511 1757.99 32.9512 1757.81 32.6767ZM1755.9 5.13634C1751.59 5.14679 1745.88 7.50456 1742.48 11.564C1740.56 13.8669 1739.56 16.0286 1739.01 18.538C1738.4 21.3689 1738.56 24.2259 1739.21 26.2674C1739.37 26.7666 1739.55 27.1639 1739.73 27.4358C1740.05 27.9063 1740.39 28.0396 1740.72 27.9612C1740.94 27.9063 1741.07 27.7573 1741.13 27.5613C1741.18 27.3495 1741.14 27.0829 1741.05 26.7222C1740.49 24.3461 1740.41 21.9204 1740.99 19.262C1741.48 17.014 1742.61 14.8576 1744.26 12.9886C1747.11 9.76823 1751.23 7.67969 1755.92 7.49672C1756.46 7.47581 1756.83 7.37648 1757.08 7.15952C1757.3 6.96348 1757.43 6.69424 1757.43 6.31261C1757.43 5.9728 1757.3 5.63821 1757.02 5.42125C1756.78 5.23305 1756.43 5.13634 1755.9 5.13634Z" fill="#9A9A9A"/>
<path d="M1780 18.4496V16.0934H1782.05V15.1186C1782.05 13.9997 1782.39 13.083 1783.08 12.3686C1783.77 11.6542 1784.82 11.297 1786.21 11.297C1786.55 11.297 1787.42 11.3314 1788.02 11.3938V13.9739C1787.71 13.9373 1787.26 13.9007 1786.83 13.9007C1786.32 13.9007 1785.97 14.0104 1785.77 14.2299C1785.55 14.4623 1785.47 14.7765 1785.47 15.3381V16.0934H1787.83V18.4496H1785.47V28.6772H1782.05V18.4496H1780Z" fill="#9A9A9A"/>
<path d="M1799.1 16.0912V18.4281H1799.15C1799.83 16.7798 1801.47 15.7512 1803.05 15.7512C1803.38 15.7512 1803.68 15.7964 1803.87 15.8739V19.0865C1803.5 19.0134 1803.14 18.9639 1802.65 18.9639C1800.55 18.9617 1799.27 20.2098 1799.27 23.005V28.6772H1795.86V16.0934H1799.1V16.0912Z" fill="#9A9A9A"/>
<path d="M1895.87 26.095C1896.41 26.095 1896.65 26.0584 1897 26.0047V28.6772C1896.49 28.759 1895.96 28.7977 1894.96 28.7977C1893.46 28.7977 1892.44 28.5459 1891.83 27.9477C1891.25 27.3861 1891.08 26.8309 1891.08 25.5033C1891.08 24.3026 1891.08 19.5385 1891.08 18.4496H1889.01V16.0934H1891.08V12.3213H1894.49V16.0934H1897V18.4496H1894.49V24.6361C1894.49 25.7658 1894.77 26.095 1895.87 26.095Z" fill="#9A9A9A"/>
<path d="M1823.8 26.095C1824.34 26.095 1824.58 26.0584 1824.93 26.0047V28.6772C1824.42 28.759 1823.89 28.7977 1822.89 28.7977C1821.38 28.7977 1820.37 28.5459 1819.76 27.9477C1819.18 27.3861 1819 26.8309 1819 25.5033C1819 24.3026 1819 19.5385 1819 18.4496H1816.93V16.0934H1819V12.3213H1822.42V16.0934H1824.93V18.4496H1822.42V24.6361C1822.42 25.7658 1822.7 26.095 1823.8 26.095Z" fill="#9A9A9A"/>
<path d="M1793.23 16.0913H1789.81V28.6751H1793.23V16.0913Z" fill="#9A9A9A"/>
<path d="M1791.52 14.5978C1792.5 14.5978 1793.3 13.793 1793.3 12.7989C1793.3 11.8048 1792.5 11 1791.52 11C1790.54 11 1789.74 11.8048 1789.74 12.7989C1789.74 13.793 1790.54 14.5978 1791.52 14.5978Z" fill="#9A9A9A"/>
<path d="M1856.92 16.0912V18.4281H1856.97C1857.64 16.7798 1859.29 15.7512 1860.86 15.7512C1861.19 15.7512 1861.49 15.7964 1861.69 15.8739V19.0865C1861.32 19.0134 1860.95 18.9639 1860.46 18.9639C1858.36 18.9617 1857.09 20.2098 1857.09 23.005V28.6772H1853.67V16.0934H1856.92V16.0912Z" fill="#9A9A9A"/>
<path d="M1851.04 16.0913H1847.62V28.6751H1851.04V16.0913Z" fill="#9A9A9A"/>
<path d="M1849.33 14.5978C1850.32 14.5978 1851.11 13.793 1851.11 12.7989C1851.11 11.8048 1850.32 11 1849.33 11C1848.35 11 1847.55 11.8048 1847.55 12.7989C1847.55 13.793 1848.35 14.5978 1849.33 14.5978Z" fill="#9A9A9A"/>
<path d="M1841.44 11.2971V17.6256H1841.4C1840.56 16.2979 1839.1 15.7492 1837.56 15.7492C1835.23 15.7492 1832.21 17.6148 1832.21 22.2842C1832.21 26.4028 1834.37 29 1837.75 29C1839.37 29 1840.77 28.4427 1841.56 27.0698H1841.61V28.6751H1844.86V11.2949H1841.44V11.2971ZM1838.59 26.4135C1836.75 26.4135 1835.62 24.8707 1835.62 22.3854C1835.62 19.9022 1836.75 18.3572 1838.59 18.3572C1840.49 18.3572 1841.56 19.8118 1841.56 22.3854C1841.56 24.9589 1840.49 26.4135 1838.59 26.4135Z" fill="#9A9A9A"/>
<path d="M1815.89 19.7559H1812.65C1812.58 18.6736 1811.89 18.0517 1810.26 18.0517C1809.03 18.0517 1808.41 18.4476 1808.41 19.2094C1808.41 19.6613 1808.62 20.0615 1809.49 20.3821C1810.99 20.9394 1812.91 21.0858 1814.48 21.925C1815.58 22.5124 1816.19 23.3968 1816.19 24.6233C1816.19 25.9897 1815.8 26.8698 1814.92 27.6768C1813.92 28.587 1812.37 28.9851 1810.53 28.9851C1808.53 28.9851 1806.86 28.5547 1805.86 27.6703C1804.86 26.7751 1804.61 25.6347 1804.61 24.576H1807.91C1807.88 25.9553 1808.76 26.6826 1810.46 26.6826C1812.02 26.6826 1812.77 26.1705 1812.77 25.1505C1812.77 24.6212 1812.43 24.2166 1811.89 23.9842C1810.35 23.3172 1807.51 23.0869 1806.14 22.0562C1805.35 21.4623 1804.98 20.7393 1804.98 19.7151C1804.98 17.1781 1806.88 15.7493 1810.35 15.7493C1812.39 15.7493 1813.75 16.2076 1814.69 17.0748C1815.47 17.8021 1815.82 18.7059 1815.89 19.7559Z" fill="#9A9A9A"/>
<path d="M1874.69 22.4112C1874.74 18.9231 1872.48 15.7578 1868.62 15.7578C1864.83 15.7578 1862.27 18.5896 1862.27 22.4284C1862.27 26.3792 1864.71 28.9936 1868.53 28.9936C1871.5 28.9936 1873.71 27.5885 1874.46 24.7825H1871.45C1871.02 25.8799 1870 26.4093 1868.73 26.4093C1866.87 26.4093 1865.71 25.2495 1865.62 23.2267H1874.67C1874.69 23.0159 1874.68 22.7232 1874.69 22.4112ZM1865.66 21.0362C1865.92 19.2265 1866.98 18.3486 1868.47 18.3486C1870.23 18.3486 1871.23 19.588 1871.3 21.0362H1865.66Z" fill="#9A9A9A"/>
<path d="M1885.05 23.9024C1884.78 25.2817 1883.97 26.3856 1882.34 26.3856C1880.6 26.3856 1879.44 24.9589 1879.44 22.3703C1879.44 19.8613 1880.58 18.355 1882.32 18.355C1883.81 18.355 1884.64 19.2351 1884.94 20.5219H1888.24C1888 17.7439 1885.8 15.7449 1882.31 15.7449C1878.57 15.7449 1876.04 18.4067 1876.04 22.3703C1876.04 26.136 1878.39 28.9957 1882.31 28.9957C1885.76 28.9957 1887.95 26.9687 1888.31 23.9024H1885.05Z" fill="#9A9A9A"/>
</g>
<defs>
<clipPath id="clip0_928_5818">
<rect width="186" height="40" fill="white" transform="translate(144)"/>
</clipPath>
<clipPath id="clip1_928_5818">
<rect width="40" height="40" fill="white" transform="translate(390)"/>
</clipPath>
<clipPath id="clip2_928_5818">
<rect width="140" height="40" fill="white" transform="translate(490)"/>
</clipPath>
<clipPath id="clip3_928_5818">
<rect width="153" height="40" fill="white" transform="translate(690)"/>
</clipPath>
<clipPath id="clip4_928_5818">
<rect width="152" height="40" fill="white" transform="translate(903)"/>
</clipPath>
<clipPath id="clip5_928_5818">
<rect width="162" height="40" fill="white" transform="translate(1115)"/>
</clipPath>
<clipPath id="clip6_928_5818">
<rect width="177" height="40" fill="white" transform="translate(1497)"/>
</clipPath>
<clipPath id="clip7_928_5818">
<rect width="163" height="40" fill="white" transform="translate(1734)"/>
</clipPath>
</defs>
</svg>
