<svg width="20" height="20" viewBox="0 0 20 20" fill="none" xmlns="http://www.w3.org/2000/svg">
<path d="M9.24816 0.112138C9.81967 -0.0622697 10.4374 -0.0332448 10.9936 0.199276L11.1023 0.248684C11.3507 0.37073 11.5642 0.538941 11.7698 0.729288C12 0.942506 12.2617 1.22352 12.5756 1.55934L12.9008 1.89981C12.9708 1.96909 13.0128 2.00374 13.0553 2.03276L13.1523 2.09205C13.2524 2.14619 13.3607 2.18495 13.473 2.20614L13.5565 2.21692C13.6533 2.22431 13.804 2.22128 14.1458 2.20973L14.7801 2.19086C14.9726 2.18708 15.147 2.18753 15.3038 2.19356C15.6238 2.20588 15.9304 2.24517 16.2273 2.36694L16.4599 2.47653C16.9874 2.7573 17.4034 3.21426 17.6323 3.77192L17.6745 3.88421C17.7638 4.14614 17.7958 4.41631 17.8065 4.6963C17.8126 4.8531 17.8121 5.02745 17.8083 5.22002L17.7895 5.85334C17.774 6.30969 17.7739 6.4258 17.7931 6.52709L17.82 6.63758C17.8525 6.7466 17.9021 6.85047 17.9664 6.94481L18.0176 7.01128C18.0808 7.08494 18.1894 7.18955 18.4399 7.42362L18.9007 7.85841C19.0397 7.992 19.1632 8.1151 19.2699 8.23031C19.4876 8.46539 19.677 8.7103 19.8008 9.00647L19.888 9.24812C20.0374 9.73781 20.0373 10.2613 19.888 10.751L19.8008 10.9936C19.677 11.2896 19.4875 11.5347 19.2699 11.7697C19.1632 11.8849 19.0396 12.008 18.9007 12.1416L18.4399 12.5755C18.1896 12.8094 18.0808 12.9142 18.0176 12.9878L17.9664 13.0552C17.9021 13.1495 17.8525 13.2527 17.82 13.3616L17.7931 13.4729C17.774 13.5741 17.7741 13.6904 17.7895 14.1458L17.8083 14.78C17.8121 14.9725 17.8126 15.147 17.8065 15.3037C17.7958 15.5838 17.7639 15.8538 17.6745 16.1158L17.6323 16.2272C17.4033 16.785 16.9875 17.2427 16.4599 17.5235L16.2273 17.6322C15.9304 17.754 15.6238 17.7941 15.3038 17.8065C15.147 17.8125 14.9726 17.812 14.7801 17.8083L14.1458 17.7894C13.804 17.7779 13.6533 17.7748 13.5565 17.7822L13.473 17.793C13.3608 17.8142 13.2523 17.853 13.1523 17.9071L13.0553 17.9664C13.0128 17.9954 12.9707 18.0301 12.9008 18.0993L12.5756 18.4398C12.2617 18.7756 12 19.0566 11.7698 19.2698C11.5641 19.4603 11.3508 19.6293 11.1023 19.7513L10.9936 19.8008C10.4375 20.0333 9.81962 20.0622 9.24816 19.8879L9.00651 19.8008C8.71034 19.6769 8.46542 19.4875 8.23035 19.2698C8.11514 19.1632 7.99203 19.0396 7.85844 18.9006L7.42365 18.4398C7.18959 18.1894 7.08497 18.0807 7.01132 18.0176L6.94484 17.9664C6.8505 17.902 6.74663 17.8524 6.63761 17.8199L6.52712 17.793C6.47645 17.7834 6.42196 17.7791 6.3232 17.7786L5.85337 17.7894C5.39386 17.8049 5.00998 17.8185 4.69632 17.8065C4.41633 17.7957 4.14616 17.7637 3.88423 17.6744L3.77194 17.6322C3.21428 17.4033 2.75732 16.9873 2.47655 16.4599L2.36695 16.2272C2.24518 15.9304 2.2059 15.6237 2.19358 15.3037C2.18151 14.99 2.19421 14.6055 2.20975 14.1458L2.22143 13.676C2.22116 13.6268 2.21939 13.5887 2.21693 13.5565L2.20615 13.4729C2.18496 13.3607 2.1462 13.2523 2.09207 13.1522L2.03278 13.0552C2.00375 13.0127 1.9691 12.9707 1.89982 12.9007L1.55936 12.5755C1.22353 12.2616 0.942519 12 0.7293 11.7697C0.538953 11.5641 0.370741 11.3506 0.248694 11.1023L0.199286 10.9936C-0.0664348 10.3579 -0.0664226 9.64209 0.199286 9.00647L0.248694 8.89777C0.37073 8.64928 0.538889 8.43597 0.7293 8.23031C0.942571 7.99998 1.22338 7.73762 1.55936 7.42362L1.89982 7.09932C1.96908 7.02933 2.00377 6.98725 2.03278 6.94481L2.09207 6.84689C2.14611 6.74691 2.18497 6.63921 2.20615 6.52709L2.21693 6.44354C2.21943 6.41118 2.22116 6.37278 2.22143 6.32317L2.20975 5.85334C2.19422 5.39382 2.18153 5.00995 2.19358 4.6963C2.20589 4.37617 2.24508 4.06888 2.36695 3.77192L2.47655 3.53925C2.75735 3.01192 3.21431 2.59579 3.77194 2.36694L3.88423 2.32472C4.14613 2.23541 4.41637 2.20433 4.69632 2.19356C5.00998 2.18152 5.39385 2.1942 5.85337 2.20973L6.3232 2.22141C6.42196 2.22089 6.47645 2.2157 6.52712 2.20614L6.63761 2.17919C6.7466 2.14669 6.85052 2.09712 6.94484 2.03276L7.01132 1.98155C7.08496 1.91839 7.18975 1.8096 7.42365 1.55934L7.85844 1.0985C7.99197 0.959611 8.11518 0.835924 8.23035 0.729288C8.46538 0.511688 8.7104 0.323059 9.00651 0.199276L9.24816 0.112138ZM10.4259 1.55665C10.1875 1.45698 9.92252 1.44503 9.67756 1.51982L9.57425 1.55665C9.50579 1.58527 9.40759 1.64484 9.23019 1.80908C9.1391 1.89342 9.03825 1.99435 8.91937 2.1181L8.49895 2.56457C8.29888 2.77864 8.13218 2.96014 7.95546 3.10985L7.774 3.24909C7.55396 3.39923 7.31229 3.51376 7.05803 3.58956L6.80021 3.65244C6.65077 3.68065 6.49888 3.69112 6.33577 3.69287L5.80396 3.68119C5.32301 3.66493 5.00101 3.6546 4.75292 3.66412C4.57166 3.67109 4.46338 3.68813 4.39179 3.70814L4.3307 3.7288C4.09179 3.82689 3.89586 4.00502 3.77553 4.23096L3.72882 4.33068C3.70064 4.39935 3.67344 4.51115 3.66414 4.75289C3.65462 5.00098 3.66496 5.32298 3.68121 5.80393L3.69289 6.33574C3.69201 6.41729 3.68846 6.49593 3.68211 6.5729L3.65246 6.80018C3.60302 7.06197 3.51368 7.31417 3.38746 7.54758L3.24911 7.77396C3.1634 7.89956 3.06314 8.01405 2.94907 8.1306L2.56459 8.49891C2.21284 8.82766 1.9778 9.04794 1.80909 9.23015C1.68575 9.36338 1.62184 9.45194 1.58541 9.51672L1.55666 9.57421C1.4429 9.84655 1.44282 10.1535 1.55666 10.4258L1.58541 10.4833C1.6219 10.5481 1.68592 10.6369 1.80909 10.7699C1.97776 10.952 2.21302 11.1716 2.56459 11.5002L2.94907 11.8685C3.0632 11.9851 3.16337 12.0995 3.24911 12.2252L3.38746 12.4524C3.51359 12.6858 3.60307 12.9381 3.65246 13.1999L3.68211 13.4262C3.68847 13.5032 3.69201 13.5818 3.69289 13.6634L3.68121 14.1961C3.66495 14.6772 3.6546 14.999 3.66414 15.2471C3.67344 15.4886 3.70067 15.5998 3.72882 15.6685L3.77553 15.7682C3.89583 15.9942 4.09175 16.1722 4.3307 16.2703L4.39179 16.2919C4.46338 16.3119 4.57178 16.3289 4.75292 16.3359C5.001 16.3454 5.32302 16.3351 5.80396 16.3188L6.33577 16.3063C6.49888 16.308 6.65077 16.3185 6.80021 16.3467L7.05803 16.4096C7.3124 16.4854 7.55388 16.6007 7.774 16.7509L7.95546 16.8893C8.13221 17.039 8.29887 17.2205 8.49895 17.4346L8.91937 17.881C9.03831 18.0049 9.13906 18.1057 9.23019 18.1901C9.40769 18.3544 9.50577 18.4139 9.57425 18.4425L9.67756 18.4802C9.92248 18.5549 10.1875 18.5421 10.4259 18.4425L10.4834 18.4137C10.5481 18.3772 10.637 18.3131 10.7699 18.1901C10.9521 18.0214 11.1717 17.7861 11.5003 17.4346L11.8686 17.0501C11.985 16.9361 12.0997 16.8366 12.2252 16.7509L12.4525 16.6126C12.6859 16.4864 12.9381 16.3961 13.1999 16.3467L13.4263 16.317C13.6571 16.298 13.9034 16.3089 14.1962 16.3188L14.8088 16.3368C14.9805 16.3403 15.1231 16.3407 15.2472 16.3359C15.4888 16.3266 15.5999 16.2985 15.6685 16.2703L15.7682 16.2236C15.9943 16.1033 16.1723 15.9075 16.2704 15.6685L16.292 15.6074C16.3119 15.5358 16.329 15.4279 16.336 15.2471C16.3407 15.123 16.3403 14.9804 16.3369 14.8088L16.3189 14.1961C16.3057 13.806 16.2905 13.4984 16.3468 13.1999L16.4096 12.9411C16.4855 12.6869 16.6008 12.4452 16.751 12.2252L16.8893 12.0437C17.039 11.867 17.2206 11.7003 17.4346 11.5002L17.8811 11.0798C18.0047 10.9611 18.1058 10.8609 18.1901 10.7699C18.3542 10.5926 18.4139 10.4943 18.4426 10.4258L18.4803 10.3216C18.5443 10.1118 18.5443 9.88735 18.4803 9.67752L18.4426 9.57421C18.4139 9.50573 18.3545 9.40765 18.1901 9.23015C18.1057 9.13902 18.0049 9.03828 17.8811 8.91933L17.4346 8.49891C17.2205 8.29883 17.039 8.13217 16.8893 7.95542L16.751 7.77396C16.6008 7.55385 16.4855 7.31236 16.4096 7.058L16.3468 6.80018C16.2904 6.50161 16.3057 6.19407 16.3189 5.80393L16.3369 5.19038C16.3403 5.01908 16.3407 4.8768 16.336 4.75289C16.329 4.57176 16.3119 4.46336 16.292 4.39176L16.2704 4.33068C16.1723 4.09173 15.9943 3.8958 15.7682 3.77551L15.6685 3.7288C15.5999 3.70064 15.4887 3.67342 15.2472 3.66412C15.1231 3.65935 14.9804 3.65888 14.8088 3.66232L14.1962 3.68119C13.9034 3.69108 13.6571 3.70117 13.4263 3.68209L13.1999 3.65244C12.9382 3.60304 12.6859 3.51357 12.4525 3.38744L12.2252 3.24909C12.0996 3.16335 11.9852 3.06318 11.8686 2.94905L11.5003 2.56457C11.1717 2.213 10.9521 1.97775 10.7699 1.80908C10.6369 1.68591 10.5481 1.62188 10.4834 1.58539L10.4259 1.55665ZM12.3869 7.60508C12.6581 7.30242 13.1235 7.27652 13.4263 7.54758C13.729 7.81874 13.754 8.28419 13.4829 8.58695L9.80242 12.7498C9.66786 12.9 9.47761 12.9891 9.276 12.995C9.07437 13.001 8.87928 12.9233 8.73611 12.7812L6.33577 10.4833L6.28547 10.4276C6.0486 10.1395 6.06375 9.71261 6.33218 9.44215C6.60057 9.17193 7.02689 9.15375 7.31675 9.38826L7.37334 9.43856L9.223 11.1903L12.3869 7.60508Z" fill="white"/>
</svg>
