<svg width="163" height="40" viewBox="0 0 163 40" fill="none" xmlns="http://www.w3.org/2000/svg">
<g clip-path="url(#clip0_928_5865)">
<path d="M33.7581 17.0925C33.6078 19.4528 33.0015 21.5649 31.7086 23.8625C30.1902 26.5627 27.7986 28.5519 25.5158 29.574C25.1167 29.7517 24.7436 29.8171 24.4094 29.7517C24.0647 29.6838 23.8004 29.4564 23.6553 29.1479C23.5128 28.8447 23.531 28.4683 23.6683 28.1755C23.8108 27.8697 24.0829 27.6528 24.526 27.4332C26.9124 26.2491 28.4852 24.9212 29.9466 22.715C31.2033 20.8199 32.0635 18.2531 32.2941 15.8273C32.3278 15.4823 32.3822 15.2366 32.5092 15.0824C32.618 14.949 32.7787 14.8785 32.986 14.902C33.5172 14.9621 33.854 15.6104 33.7581 17.0925ZM19.9189 28.7584C17.5325 28.9493 15.2523 28.3271 13.6718 26.8973C12.3321 25.6871 11.6144 24.0481 11.5548 22.1844C11.5289 20.0436 12.1171 18.3132 13.366 16.7344C15.5037 14.0368 19.1805 12.5442 23.1553 12.7795C23.6113 12.8082 23.9611 12.7559 24.2202 12.5939C24.5001 12.4214 24.6711 12.1234 24.7048 11.7261C24.7307 11.3993 24.6322 11.0595 24.3938 10.8243C24.1684 10.6021 23.8238 10.474 23.3366 10.4426C18.5638 10.1472 14.1589 11.9927 11.5237 15.3202C9.8628 17.4192 9.18652 19.5208 9.17875 22.7386C9.17357 25.3368 9.17875 34.5535 9.17875 37.0655C9.17875 38.2026 9.58037 38.7933 10.2126 38.9815C10.6583 39.1148 11.0133 38.9998 11.2154 38.762C11.4149 38.5293 11.5237 38.2104 11.5237 37.6589C11.5237 35.0476 11.5237 29.9948 11.5237 28.2461C13.5811 30.5621 17.4548 31.4586 20.1185 31.111C20.5693 31.0509 20.9191 30.9385 21.1497 30.7215C21.4088 30.4784 21.5229 30.1595 21.4814 29.7491C21.4477 29.4119 21.2793 29.1166 21.0279 28.9388C20.787 28.7689 20.4994 28.7114 19.9189 28.7584ZM27.7986 6.23158C27.2855 5.748 26.7258 5.62514 26.3216 5.86824C26.1117 5.99371 25.9874 6.21066 25.9614 6.43285C25.9303 6.72038 26.0288 7.04189 26.2879 7.4549C27.7908 9.83619 28.4541 13.2029 27.1974 16.9278C26.218 19.8319 24.3213 21.9309 21.8545 23.0209C19.2634 24.1658 17.3667 23.6822 16.8303 22.6105C16.3691 21.6904 16.5971 20.224 18.1414 19.1235C19.1934 18.3707 20.6756 17.9943 22.01 18.0805C22.5671 18.1171 22.8625 18.0283 23.0957 17.8845C23.3625 17.7224 23.5336 17.4297 23.5776 17.0402C23.6217 16.6455 23.4817 16.2534 23.1915 16.0234C22.9609 15.843 22.6733 15.7437 22.2432 15.7123C20.3594 15.5738 18.3021 16.1358 16.7992 17.2075C14.5216 18.8333 13.6821 21.5152 14.7574 23.6639C15.3145 24.7748 16.4002 25.6322 18.03 25.8988C19.3204 26.1079 20.9735 25.9537 22.7873 25.1643C25.863 23.8286 28.2235 21.2721 29.4128 17.7381C30.9597 13.1559 30.0321 8.3384 27.7986 6.23158ZM32.9419 31.1319C36.5177 26.6098 38.1034 21.1702 37.9894 16.3318C37.8651 11.0909 35.6756 6.41194 32.0376 3.48433C28.1794 0.381594 23.2796 -0.640454 18.2865 0.384207C13.2105 1.42455 8.60093 4.3783 5.0485 8.87165C2.23972 12.4266 0.254924 17.2127 0.0269057 21.9753C-0.180384 26.3013 0.79906 30.2824 3.34872 33.7877C4.22193 34.9874 5.21433 35.8945 5.62373 36.2474C5.89839 36.4852 6.15232 36.595 6.43216 36.5819C6.71977 36.5689 6.97888 36.433 7.16285 36.1899C7.3235 35.9781 7.37015 35.7089 7.33646 35.471C7.29759 35.1939 7.14731 34.9509 6.87265 34.7156C6.54876 34.4385 5.70405 33.6726 4.93449 32.614C2.71131 29.5557 1.79146 26.2203 1.98061 22.1452C2.17754 17.9368 3.91359 13.4826 6.57726 10.1133C9.8654 5.9545 14.076 3.27522 18.6674 2.33159C23.0879 1.42455 27.428 2.31852 30.8017 5.03439C33.9654 7.58036 35.9165 11.7051 36.028 16.3762C36.1368 20.9715 34.5691 25.891 31.3302 29.987C27.2544 35.1443 21.5047 38.051 15.698 38.0222C15.3508 38.0196 15.2368 38.0144 14.8792 37.9856C14.4698 37.9543 14.1926 38.0039 13.9801 38.1608C13.7832 38.3071 13.6381 38.5476 13.6173 38.8717C13.5966 39.1828 13.6977 39.4756 13.9101 39.669C14.1097 39.8494 14.3817 39.9252 14.7678 39.9644C14.9984 39.9879 15.2135 39.9957 15.4493 39.9984C21.9556 40.082 28.3271 36.9714 32.9419 31.1319ZM23.8134 32.6767C23.7175 32.533 23.5802 32.4728 23.4092 32.4728C23.2641 32.4728 23.0931 32.5277 22.8702 32.6166C20.6108 33.5393 17.8927 33.8373 15.115 33.3145C14.7237 33.2413 14.4439 33.2649 14.2237 33.406C14.0267 33.5341 13.879 33.7354 13.8246 33.9889C13.7469 34.3366 13.8557 34.6293 14.0371 34.828C14.1978 35.0031 14.4413 35.1025 14.6875 35.16C15.3456 35.3116 16.2214 35.39 17.0376 35.39C19.4422 35.39 22.1188 34.7705 23.4532 33.6988C23.8885 33.3511 23.9948 32.9512 23.8134 32.6767ZM21.9037 5.13634C17.5895 5.14679 11.8761 7.50456 8.48433 11.564C6.55912 13.8669 5.55895 16.0286 5.01222 18.538C4.39554 21.3689 4.55878 24.2259 5.20915 26.2674C5.3698 26.7666 5.54859 27.1639 5.73256 27.4358C6.04867 27.9063 6.39329 28.0396 6.71718 27.9612C6.94261 27.9063 7.07476 27.7573 7.12658 27.5613C7.18099 27.3495 7.13694 27.0829 7.05144 26.7222C6.49175 24.3461 6.41143 21.9204 6.98925 19.262C7.47897 17.014 8.60611 14.8576 10.2592 12.9886C13.1069 9.76823 17.2345 7.67969 21.9245 7.49672C22.4557 7.47581 22.834 7.37648 23.0775 7.15952C23.2952 6.96348 23.4273 6.69424 23.4273 6.31261C23.4273 5.9728 23.3004 5.63821 23.0153 5.42125C22.7821 5.23305 22.4349 5.13634 21.9037 5.13634Z" fill="#9A9A9A"/>
<path d="M46 18.4496V16.0934H48.0477V15.1186C48.0477 13.9997 48.3925 13.083 49.0822 12.3686C49.7719 11.6542 50.817 11.297 52.2133 11.297C52.5539 11.297 53.416 11.3314 54.0205 11.3938V13.9739C53.714 13.9373 53.2606 13.9007 52.8285 13.9007C52.3219 13.9007 51.9707 14.0104 51.7685 14.2299C51.5535 14.4623 51.4683 14.7765 51.4683 15.3381V16.0934H53.8289V18.4496H51.4683V28.6772H48.0498V18.4496H46Z" fill="#9A9A9A"/>
<path d="M65.1043 16.0912V18.4281H65.1533C65.8323 16.7798 67.4734 15.7512 69.0464 15.7512C69.3764 15.7512 69.6765 15.7964 69.8745 15.8739V19.0865C69.5041 19.0134 69.1358 18.9639 68.6463 18.9639C66.5475 18.9617 65.2746 20.2098 65.2746 23.005V28.6772H61.8561V16.0934H65.1043V16.0912Z" fill="#9A9A9A"/>
<path d="M161.868 26.095C162.408 26.095 162.653 26.0584 163 26.0047V28.6772C162.487 28.759 161.963 28.7977 160.961 28.7977C159.456 28.7977 158.441 28.5459 157.827 27.9477C157.253 27.3861 157.076 26.8309 157.076 25.5033C157.076 24.3026 157.076 19.5385 157.076 18.4496H155.005V16.0934H157.076V12.3213H160.495V16.0934H163V18.4496H160.495V24.6361C160.495 25.7658 160.771 26.095 161.868 26.095Z" fill="#9A9A9A"/>
<path d="M89.7957 26.095C90.3363 26.095 90.5811 26.0584 90.9281 26.0047V28.6772C90.4151 28.759 89.8915 28.7977 88.8889 28.7977C87.384 28.7977 86.3686 28.5459 85.7556 27.9477C85.1809 27.3861 85.0042 26.8309 85.0042 25.5033C85.0042 24.3026 85.0042 19.5385 85.0042 18.4496H82.9331V16.0934H85.0042V12.3213H88.4227V16.0934H90.9281V18.4496H88.4227V24.6361C88.4227 25.7658 88.6973 26.095 89.7957 26.095Z" fill="#9A9A9A"/>
<path d="M59.2292 16.0913H55.8107V28.6751H59.2292V16.0913Z" fill="#9A9A9A"/>
<path d="M57.52 14.5978C58.5034 14.5978 59.2995 13.793 59.2995 12.7989C59.2995 11.8048 58.5034 11 57.52 11C56.5366 11 55.7405 11.8048 55.7405 12.7989C55.7405 13.793 56.5366 14.5978 57.52 14.5978Z" fill="#9A9A9A"/>
<path d="M122.917 16.0912V18.4281H122.966C123.645 16.7798 125.286 15.7512 126.859 15.7512C127.189 15.7512 127.489 15.7964 127.687 15.8739V19.0865C127.316 19.0134 126.948 18.9639 126.459 18.9639C124.362 18.9617 123.087 20.2098 123.087 23.005V28.6772H119.668V16.0934H122.917V16.0912Z" fill="#9A9A9A"/>
<path d="M117.042 16.0913H113.623V28.6751H117.042V16.0913Z" fill="#9A9A9A"/>
<path d="M115.332 14.5978C116.316 14.5978 117.112 13.793 117.112 12.7989C117.112 11.8048 116.316 11 115.332 11C114.349 11 113.553 11.8048 113.553 12.7989C113.553 13.793 114.349 14.5978 115.332 14.5978Z" fill="#9A9A9A"/>
<path d="M107.444 11.2971V17.6256H107.397C106.558 16.2979 105.1 15.7492 103.563 15.7492C101.23 15.7492 98.2057 17.6148 98.2057 22.2842C98.2057 26.4028 100.373 29 103.749 29C105.371 29 106.767 28.4427 107.563 27.0698H107.612V28.6751H110.862V11.2949H107.444V11.2971ZM104.587 26.4135C102.754 26.4135 101.616 24.8707 101.616 22.3854C101.616 19.9022 102.754 18.3572 104.587 18.3572C106.486 18.3572 107.559 19.8118 107.559 22.3854C107.559 24.9589 106.486 26.4135 104.587 26.4135Z" fill="#9A9A9A"/>
<path d="M81.8858 19.7559H78.6461C78.5801 18.6736 77.8947 18.0517 76.2579 18.0517C75.0339 18.0517 74.4081 18.4476 74.4081 19.2094C74.4081 19.6613 74.6167 20.0615 75.4852 20.3821C76.9922 20.9394 78.9143 21.0858 80.4831 21.925C81.5793 22.5124 82.186 23.3968 82.186 24.6233C82.186 25.9897 81.805 26.8698 80.9173 27.6768C79.9169 28.587 78.3694 28.9851 76.5261 28.9851C74.5273 28.9851 72.8585 28.5547 71.8645 27.6703C70.8598 26.7751 70.6107 25.6347 70.6107 24.576H73.91C73.8824 25.9553 74.7551 26.6826 76.4643 26.6826C78.0161 26.6826 78.7696 26.1705 78.7696 25.1505C78.7696 24.6212 78.429 24.2166 77.8926 23.9842C76.3536 23.3172 73.5141 23.0869 72.139 22.0562C71.3493 21.4623 70.9832 20.7393 70.9832 19.7151C70.9832 17.1781 72.8777 15.7493 76.3494 15.7493C78.3928 15.7493 79.7509 16.2076 80.6874 17.0748C81.4708 17.8021 81.8241 18.7059 81.8858 19.7559Z" fill="#9A9A9A"/>
<path d="M140.686 22.4112C140.739 18.9231 138.477 15.7578 134.615 15.7578C130.826 15.7578 128.266 18.5896 128.266 22.4284C128.266 26.3792 130.712 28.9936 134.53 28.9936C137.502 28.9936 139.707 27.5885 140.458 24.7825H137.448C137.016 25.8799 136.001 26.4093 134.73 26.4093C132.868 26.4093 131.712 25.2495 131.616 23.2267H140.669C140.688 23.0159 140.682 22.7232 140.686 22.4112ZM131.663 21.0362C131.923 19.2265 132.976 18.3486 134.473 18.3486C136.229 18.3486 137.227 19.588 137.297 21.0362H131.663Z" fill="#9A9A9A"/>
<path d="M151.054 23.9024C150.78 25.2817 149.971 26.3856 148.338 26.3856C146.601 26.3856 145.439 24.9589 145.439 22.3703C145.439 19.8613 146.582 18.355 148.317 18.355C149.807 18.355 150.643 19.2351 150.935 20.5219H154.239C153.998 17.7439 151.799 15.7449 148.313 15.7449C144.573 15.7449 142.035 18.4067 142.035 22.3703C142.035 26.136 144.394 28.9957 148.313 28.9957C151.759 28.9957 153.953 26.9687 154.311 23.9024H151.054Z" fill="#9A9A9A"/>
</g>
<defs>
<clipPath id="clip0_928_5865">
<rect width="163" height="40" fill="white"/>
</clipPath>
</defs>
</svg>
