<svg width="153" height="40" viewBox="0 0 153 40" fill="none" xmlns="http://www.w3.org/2000/svg">
<g clip-path="url(#clip0_928_5850)">
<path d="M80 20.0235L60.0118 0V40L80 20.0235Z" fill="#9A9A9A"/>
<path d="M40.0235 20.0235L60.0118 0H20.0353L40.0235 20.0235Z" fill="#9A9A9A"/>
<path d="M0 20.0235L20.0353 40V0L0 20.0235Z" fill="#9A9A9A"/>
<path d="M40.0235 20.0235L20.0353 40H60.0118L40.0235 20.0235Z" fill="#9A9A9A"/>
<path d="M99.25 21.3146H91.75V29H88V11H91.75V18.382H99.25V11H103V29H99.25V21.3146Z" fill="#9A9A9A"/>
<path d="M112.807 29C109.09 29 106.048 27.4878 106 23.3415H109.717C109.766 25.1951 110.828 26.3171 112.855 26.3171C114.352 26.3171 116.09 25.5366 116.09 23.8293C116.09 22.4634 114.931 22.0732 113 21.4878L111.745 21.1463C109.041 20.3659 106.338 19.2927 106.338 16.1707C106.338 12.3171 109.91 11 113.145 11C116.476 11 119.372 12.1707 119.421 16.0244H115.703C115.559 14.4634 114.641 13.5366 112.903 13.5366C111.503 13.5366 110.152 14.2683 110.152 15.8293C110.152 17.0976 111.31 17.4878 113.724 18.2683L115.172 18.7073C118.117 19.6341 120 20.6585 120 23.5854C119.952 27.4878 116.186 29 112.807 29Z" fill="#9A9A9A"/>
<path d="M122 11.0183H128.572C129.792 10.9676 131.064 11.0183 132.283 11.2209C134.562 11.7274 136.311 13.1457 136.311 15.577C136.311 17.907 134.774 19.0721 132.548 19.6292C135.092 20.0851 137 21.3008 137 23.9854C137 28.0883 132.76 29 129.473 29H122.053L122 11.0183ZM128.572 18.5149C130.375 18.5149 132.23 18.1603 132.23 16.0835C132.23 14.2094 130.534 13.7029 128.837 13.7029H125.975V18.5149H128.572ZM128.943 26.3154C130.852 26.3154 132.707 25.9102 132.707 23.6815C132.707 21.4527 131.117 21.0475 129.155 21.0475H125.922V26.3154H128.943Z" fill="#9A9A9A"/>
<path d="M145.955 29C140.444 29 138 25.4486 138 20.1459C138 14.8432 140.732 11 146.147 11C149.55 11 152.856 12.5568 152.952 16.4486H149.118C148.927 14.6973 147.776 13.8216 146.147 13.8216C142.792 13.8216 141.786 17.4703 141.786 20.2432C141.786 23.0162 142.792 26.227 146.003 26.227C147.681 26.227 148.927 25.3027 149.166 23.5514H153C152.617 27.5405 149.502 29 145.955 29Z" fill="#9A9A9A"/>
</g>
<defs>
<clipPath id="clip0_928_5850">
<rect width="153" height="40" fill="white"/>
</clipPath>
</defs>
</svg>
