<svg width="28" height="29" viewBox="0 0 28 29" fill="none" xmlns="http://www.w3.org/2000/svg">
<rect y="0.5" width="28" height="28" rx="10" fill="#F6F6F6"/>
<path d="M18.6008 8.7998C18.8183 8.79996 19.0309 8.86459 19.2116 8.98552C19.3924 9.10646 19.5333 9.27826 19.6164 9.47923C19.6996 9.68019 19.7213 9.9013 19.6788 10.1146C19.6364 10.3279 19.5316 10.5238 19.3778 10.6776C19.224 10.8314 19.0281 10.9362 18.8148 10.9786C18.6015 11.0211 18.3804 10.9994 18.1794 10.9162C17.9785 10.8331 17.8067 10.6922 17.6857 10.5114C17.5648 10.3307 17.5002 10.1181 17.5 9.90061C17.5 9.29371 17.9116 8.7998 18.6008 8.7998Z" fill="#1D1D1F"/>
<rect x="5.8" y="6.3" width="16.4" height="16.4" rx="4.2" stroke="#1D1D1F" stroke-width="1.6"/>
<circle cx="14" cy="14.5" r="3.7" stroke="#1D1D1F" stroke-width="1.6"/>
</svg>
