<svg width="28" height="29" viewBox="0 0 28 29" fill="none" xmlns="http://www.w3.org/2000/svg">
<rect y="0.5" width="28" height="28" rx="10" fill="#F6F6F6"/>
<rect x="5" y="5.5" width="18" height="18" rx="4" fill="#1D1D1F"/>
<path d="M19 19.1895C19 19.361 18.8601 19.5 18.6875 19.5H17.1347C16.9621 19.5 16.8222 19.361 16.8222 19.1895V16.3632C16.8222 15.9416 16.9467 14.5156 15.713 14.5156C14.756 14.5156 14.5619 15.4916 14.523 15.9297V19.1895C14.523 19.361 14.3831 19.5 14.2104 19.5H12.7087C12.5361 19.5 12.3961 19.361 12.3961 19.1895V13.1096C12.3961 12.9381 12.5361 12.7991 12.7087 12.7991H14.2104C14.383 12.7991 14.523 12.9381 14.523 13.1096V13.6353C14.8778 13.1063 15.4051 12.698 16.5279 12.698C19.0002 12.698 19.0001 14.9795 19 16.2517V16.2733V19.1895Z" fill="#F6F6F6"/>
<path d="M11.4381 19.1623C11.4381 19.3488 11.2859 19.5 11.0981 19.5H9.65116C9.46341 19.5 9.31123 19.3488 9.31123 19.1623V13.1368C9.31123 12.9503 9.46341 12.7991 9.65116 12.7991H11.0981C11.2859 12.7991 11.4381 12.9503 11.4381 13.1368V19.1623Z" fill="#F6F6F6"/>
<path d="M10.3746 12.2311C9.61546 12.2311 9 11.6197 9 10.8655C9 10.1114 9.61546 9.5 10.3746 9.5C11.1338 9.5 11.7493 10.1114 11.7493 10.8655C11.7493 11.6197 11.1339 12.2311 10.3746 12.2311Z" fill="#F6F6F6"/>
</svg>
