<svg width="140" height="40" viewBox="0 0 140 40" fill="none" xmlns="http://www.w3.org/2000/svg">
<g clip-path="url(#clip0_928_5846)">
<path d="M9.82881 39.0386L9.02641 38.4712C8.68629 34.382 7.42157 31.9035 6.75124 30.6267C7.46615 30.1494 8.65327 29.0495 8.65327 27.4706C8.65327 25.8917 7.37864 25.0588 7.37864 23.1044C7.37864 22.0262 7.74187 21.1266 8.33462 20.4273C7.94992 19.8714 7.49917 19.5711 6.82884 19.5711C6.0809 19.5711 5.41056 20.1936 5.41056 21.1483C5.41056 21.7041 5.65162 22.315 6.1684 22.582C5.79526 23.1044 4.83764 23.1594 4.31095 22.37H4.29939C4.29939 24.236 6.25592 25.5362 6.25592 27.5257C6.25592 28.8141 5.24546 30.0593 3.7826 30.0593C2.69455 30.0593 1.67253 29.5486 1.1442 28.5254C2.33131 28.8358 3.18822 28.3585 3.18822 27.292C3.18822 25.3593 0 23.4582 0 20.1702C0 17.5816 1.96808 16.1479 4.21023 16.1479C6.25426 16.1479 8.07869 17.1042 9.454 19.5043C10.1574 18.9702 11.0143 18.6714 11.8827 18.4928C14.224 18.0256 17.0935 18.4478 19.2911 17.5032C20.2702 17.0808 21.0825 16.3365 21.0825 15.4803C21.0825 15.0697 20.8514 14.8244 20.5212 14.8244C20.3561 14.8244 20.1035 14.9028 19.9598 15.2683C19.5305 14.8911 19.3985 14.4905 19.3985 14.09C19.3985 13.424 19.6065 13.1119 19.8376 12.7898C19.6181 12.2123 18.9362 12.0788 18.4738 12.6446C17.9026 11.578 18.2543 10.111 19.7386 9.66707V9.65535C18.0017 9.36661 17.541 8.27839 17.7375 7.06668C17.9026 7.21188 18.0891 7.30034 18.2757 7.30034C18.5614 7.30034 18.738 7.06668 18.738 6.73287C18.738 6.37737 18.563 5.82158 17.6615 5.21072C18.4524 4.01068 19.8162 3.83209 20.508 4.27773L20.5195 4.26605C20.1679 3.77701 19.9912 2.9208 20.5525 2.07628C20.6846 2.26487 21.0033 2.5436 21.4986 2.5436C22.9499 2.5436 23.0044 0.932986 24.1139 0.777768C24.0478 1.27847 24.18 1.9778 24.7958 1.9778C25.5982 1.9778 25.9714 0.756071 26.1695 0C26.5212 0.200284 26.7738 0.544104 26.7193 1.18835H26.7308L27.2146 0.200284C27.6208 0.544104 27.6983 1.12326 27.5663 1.644C27.5333 1.77752 27.4887 1.87766 27.4887 1.95444C27.4887 2.34332 28.6428 2.63207 28.6428 3.49829C28.6428 3.6435 28.5982 3.79872 28.5322 3.97563L31.1706 7.34207C31.3357 7.55236 31.3902 7.77602 31.3902 7.96461C31.3902 8.66394 30.7859 9.40837 29.9175 9.40837C29.049 9.40837 28.7517 8.93099 28.7088 8.709L26.4122 7.57573C26.2801 7.79771 26.1266 8.1649 26.1266 8.57548C26.1266 11.1308 29.6995 11.1975 30.568 14.5422L34.1079 13.354C36.6356 15.8424 39.3071 18.2542 40.9565 19.2422L42 20.5875H38.8349V19.6545L37.9664 19.4108C36.6357 17.2995 34.8343 16.1446 33.8668 15.8558C32.6912 16.5785 31.8112 17.3329 30.7776 18.4995C32.46 18.366 34.339 18.5329 35.9108 18.8333L35.0869 25.9785L34.4166 27.8111L32.6367 29.3449V26.1887H33.5927L33.3286 25.189C34.1095 23.0993 34.2086 21.7007 34.2086 20.9447C34.2086 20.711 34.197 20.489 34.121 20.4106C34.055 20.3438 33.7809 20.4106 33.5383 20.4773C32.9009 20.6559 31.8558 21.155 30.5152 22.2549C29.3065 23.2546 28.6461 23.7102 27.0083 23.5217C25.1623 25.4544 21.2493 26.389 17.8184 26.344C17.5542 29.1546 14.4766 30.7769 14.4766 32.1105C14.4766 32.5878 14.9273 33.3656 15.9164 34.866C17.0159 36.5334 18.0594 38.1324 19.3572 38.6447L20.4567 40H17.2801L17.2587 39.0337L16.3572 38.5329C15.3236 36.6002 13.7088 34.4655 11.4882 32.466C12.0264 31.3778 12.312 30.2662 12.3236 29.2097C11.3231 30.7319 9.86185 30.7435 9.59765 31.8985C9.49864 32.3325 9.55311 33.177 9.78427 34.2652C10.1244 35.9092 10.4331 37.8653 11.9389 38.6214L12.9824 40H9.82716V39.0337L9.82881 39.0386Z" fill="#9A9A9A"/>
<path d="M4.40195 17.0491C5.06799 17.0491 6.01282 17.2043 6.66885 17.8152C5.11307 17.1041 2.80109 17.5715 2.63416 19.4492C2.36707 19.1604 2.2786 18.8049 2.2569 18.4928C1.67932 18.7598 1.24531 19.5593 1.13513 20.4155C0.679415 18.3709 2.33535 17.0491 4.40195 17.0491ZM13.0155 19.2722C15.1722 19.0052 18.1052 19.2505 20.5056 18.0605C21.6274 17.5047 22.7608 16.5718 22.7608 15.305C22.7608 13.7828 20.8829 12.2824 20.8829 9.04941C20.8829 6.93809 21.816 4.50464 24.2832 3.18277C22.7158 4.53802 21.9713 6.09356 21.9713 7.9829C21.9713 9.87222 22.7158 11.8834 25.2281 12.8715C27.0059 13.5708 28.6618 13.5942 29.3729 15.0713C28.7403 14.5705 27.939 14.4053 27.3731 14.4053C23.7608 14.4053 22.3936 21.1616 18.1603 23.0826C19.0601 20.7376 16.3491 19.9832 13.8484 20.0383C11.8036 20.0834 8.68035 20.6392 8.64696 23.872C8.06939 21.7057 9.31303 19.7279 13.0138 19.2722H13.0155ZM29.7301 8.31671C29.7301 8.12811 29.842 7.80599 29.842 7.52725C29.842 7.38205 29.8086 7.20513 29.6317 6.92807C29.3763 6.53919 28.8872 5.86156 28.4198 5.36085C27.7971 4.70493 27.2529 4.51632 26.4083 4.5714C27.0977 4.1942 27.2529 3.8387 27.2529 3.43813C27.2529 3.09431 27.0643 2.72712 26.7522 2.3833C27.1961 2.46175 28.3864 2.95077 28.3864 3.59502C28.3864 3.72854 28.3196 3.85038 28.1861 3.98391L31.0422 7.56231C30.942 7.71752 30.72 7.65076 30.5315 7.65076C30.4096 7.65076 30.3311 7.72921 30.3311 7.86273C30.3311 8.10641 30.5197 8.40684 30.6316 8.57374C30.5431 8.62882 30.3762 8.69558 30.1975 8.69558C29.9756 8.69558 29.7301 8.61713 29.7301 8.31838V8.31671Z" fill="#9A9A9A"/>
<path d="M50.4365 26.4357V13.5659C50.4365 12.8463 50.2596 12.0244 50 11H54.3411C54.0815 12.0244 53.9045 12.8447 53.9045 13.5643V26.0627H58.6595C60.2515 26.0627 61.2545 25.9946 62.3158 25.7145L61.2414 29H50C50.2596 27.9756 50.4365 27.1553 50.4365 26.4357Z" fill="#9A9A9A"/>
<path d="M63.6661 13.5643C63.6661 12.8447 63.5028 12.023 63.2632 11H67.2704C67.0306 12.0245 66.8674 12.8447 66.8674 13.5643V26.0626H71.2565C72.7261 26.0626 73.6518 25.9945 74.6316 25.7144L73.6414 29H63.2632C63.5028 27.9755 63.6661 27.1552 63.6661 26.4356V13.5643Z" fill="#9A9A9A"/>
<path d="M74.6316 20C74.6316 14.9844 78.3216 11 83.6317 11C88.9417 11 92.6316 14.9844 92.6316 20C92.6316 25.0157 88.9417 29 83.6317 29C78.3216 29 74.6316 25.0157 74.6316 20ZM89.36 20C89.36 16.3779 87.2005 13.8762 83.6317 13.8762C80.0628 13.8762 77.9034 16.3779 77.9034 20C77.9034 23.6221 80.0628 26.1239 83.6317 26.1239C87.2005 26.1239 89.36 23.6221 89.36 20Z" fill="#9A9A9A"/>
<path d="M99.0244 22.3401C96.2567 19.5279 93.8513 15.7019 92.6316 11H96.4497C96.5055 11.8094 96.6531 12.5524 96.9578 13.419C97.8274 15.8939 99.1484 17.9647 100.662 19.7199C102.22 18.0437 103.655 15.8939 104.524 13.419C104.829 12.5524 104.976 11.811 105.032 11H108.737C107.528 15.7035 105.112 19.5279 102.344 22.3401V29H99.0244V22.3401Z" fill="#9A9A9A"/>
<path d="M111.986 26.4354V13.5645C111.986 12.8448 111.821 12.023 111.579 11H117.523C123.171 11 126.737 14.6898 126.737 20C126.737 25.3102 123.171 29 117.523 29H111.579C111.821 27.9754 111.986 27.1551 111.986 26.4354ZM123.469 19.9891C123.469 16.0858 121.3 13.936 117.304 13.936H115.222V26.0639H117.304C121.3 26.0639 123.469 23.9157 123.469 19.9891Z" fill="#9A9A9A"/>
<path d="M127.942 27.7936L127.886 24.2818C130.165 25.7192 131.692 26.3775 133.465 26.3775C135.486 26.3775 136.777 25.5984 136.777 24.1927C136.777 23.2597 136.227 22.535 134.418 21.8223L131.534 20.6915C128.873 19.6482 127.684 18.2109 127.684 15.9612C127.684 12.9205 130.109 11 133.847 11C135.801 11 137.641 11.6039 138.709 12.0976V15.4781C136.688 14.1721 135.206 13.6346 133.691 13.6346C131.805 13.6346 130.873 14.3593 130.873 15.4675C130.873 16.5757 131.468 17.1358 132.882 17.7066L136.508 19.1439C138.619 19.9773 140 21.4811 140 23.776C140 26.7836 137.597 29 133.321 29C131.076 29 129.134 28.3085 127.944 27.7921L127.942 27.7936Z" fill="#9A9A9A"/>
</g>
<defs>
<clipPath id="clip0_928_5846">
<rect width="140" height="40" fill="white"/>
</clipPath>
</defs>
</svg>
