<svg width="92" height="41" viewBox="0 0 92 41" fill="none" xmlns="http://www.w3.org/2000/svg">
<path d="M49.1262 32.4697L49.1166 17.3967H55.1553L49.1262 7.84115L49.1358 2.95227H55.1649L55.1553 11.3967H62.5243L62.5242 17.3967H55.1553L55.1649 31.1745C55.1649 32.3173 55.3967 33.1364 55.8602 33.6316C56.3237 34.0888 57.1541 34.3173 58.3514 34.3173L62.7476 34.2856V40.2856H56.9513C54.1318 40.2856 52.3513 39.765 51.0381 38.4697C49.7635 37.1745 49.1262 35.1745 49.1262 32.4697Z" fill="#1D1D1F"/>
<path d="M46.4466 11.3967V17.3967L43.447 17.4158C40.8636 17.4158 38.5469 18.2576 37.3901 19.9412C36.2333 21.5866 36.1748 22.9523 36.1748 25.4894V40.2856H30.1456V11.3967H36.1748V16.2856C38.6311 13.1745 40.1942 11.3967 46.4466 11.3967Z" fill="#1D1D1F"/>
<path d="M80.5966 11.3967C83.9918 11.3967 86.7412 12.4217 88.8447 14.4718C90.9482 16.5218 92 19.7616 92 24.1912V40.2856H85.9709V24.6854C85.9709 19.2308 83.715 16.5035 79.2127 16.5035C76.8509 16.5035 74.9872 17.3272 73.6218 18.9746C72.2932 20.5853 71.6796 22.8184 71.6796 25.6738V40.2856H65.6505V0.285599H71.6796V16.2856C73.82 13.6132 76.6848 11.3967 80.5966 11.3967Z" fill="#1D1D1F"/>
<path d="M14.9462 11.3967C18.3413 11.3967 21.0907 12.4217 23.1942 14.4718C25.2978 16.5218 26.3495 19.7616 26.3495 24.1912V40.2856H20.3204V24.6854C20.3204 19.2308 18.0645 16.5035 13.5623 16.5035C11.2004 16.5035 9.33673 17.3272 7.97128 18.9746C6.64273 20.5853 6.02913 22.8184 6.02913 25.6738V40.2856H0V11.3967H6.02913V16.2856C8.16956 13.6132 10.2718 11.3967 14.9462 11.3967Z" fill="#1D1D1F"/>
</svg>
