<svg width="64" height="29" viewBox="0 0 64 29" fill="none" xmlns="http://www.w3.org/2000/svg">
<path d="M34.1748 23.0289L34.1681 12.4778H38.3689L34.1748 5.78889L34.1814 2.36667H38.3756L38.3689 8.27778H43.4951L43.4951 12.4778H38.3689L38.3756 22.1222C38.3756 22.9222 38.5368 23.4956 38.8592 23.8422C39.1817 24.1622 39.7593 24.3222 40.5923 24.3222L43.6505 24.3V28.5H39.6183C37.6569 28.5 36.4183 28.1356 35.5048 27.2289C34.6181 26.3222 34.1748 24.9222 34.1748 23.0289Z" fill="black"/>
<path d="M32.3107 8.27778V12.4778L30.224 12.4912C28.4268 12.4912 26.8152 13.0804 26.0105 14.2589C25.2058 15.4107 25.165 16.3667 25.165 18.1427V28.5H20.9709V8.27778H25.165V11.7C26.8738 9.52222 27.9612 8.27778 32.3107 8.27778Z" fill="black"/>
<path d="M56.0672 8.27778C58.4291 8.27778 60.3417 8.9953 61.805 10.4303C63.2683 11.8654 64 14.1332 64 17.2339V28.5H59.8058V17.5799C59.8058 13.7617 58.2365 11.8526 55.1045 11.8526C53.4615 11.8526 52.165 12.4291 51.2151 13.5823C50.2909 14.7098 49.8641 16.273 49.8641 18.2718V28.5H45.6699V0.5H49.8641V11.7C51.3531 9.82933 53.346 8.27778 56.0672 8.27778Z" fill="black"/>
<path d="M10.3973 8.27778C12.7592 8.27778 14.6718 8.9953 16.1351 10.4303C17.5984 11.8654 18.3301 14.1332 18.3301 17.2339V28.5H14.1359V17.5799C14.1359 13.7617 12.5666 11.8526 9.43461 11.8526C7.79158 11.8526 6.49512 12.4291 5.54524 13.5823C4.62103 14.7098 4.19417 16.273 4.19417 18.2718V28.5H0V8.27778H4.19417V11.7C5.68317 9.82933 7.14563 8.27778 10.3973 8.27778Z" fill="black"/>
</svg>
