<svg width="80" height="35" viewBox="0 0 80 35" fill="none" xmlns="http://www.w3.org/2000/svg">
<path d="M42.7184 28.1611L42.7101 14.9722H47.9611L42.7184 6.61111L42.7268 2.33333H47.9695L47.9612 9.72222H54.3689L54.3689 14.9722H47.9611L47.9695 27.0278C47.9695 28.0278 48.171 28.7444 48.5741 29.1778C48.9771 29.5778 49.6992 29.7778 50.7404 29.7778L54.5631 29.75V35H49.5229C47.0711 35 45.5229 34.5444 44.3809 33.4111C43.2726 32.2778 42.7184 30.5278 42.7184 28.1611Z" fill="#1D1D1F"/>
<path d="M40.3883 9.72222V14.9722L37.78 14.989C35.5336 14.989 33.519 15.7255 32.5131 17.1987C31.5072 18.6383 31.4563 19.8333 31.4563 22.0533V35H26.2136V9.72222H31.4563V14C33.5922 11.2778 34.9515 9.72222 40.3883 9.72222Z" fill="#1D1D1F"/>
<path d="M70.084 9.72222C73.0364 9.72222 75.4271 10.6191 77.2563 12.4129C79.0854 14.2067 80 17.0415 80 20.9174V35H74.7573V21.3498C74.7573 16.5771 72.7957 14.1907 68.8806 14.1907C66.8268 14.1907 65.2063 14.9114 64.0189 16.3529C62.8637 17.7623 62.3301 19.7162 62.3301 22.2147V35H57.0874V0H62.3301V14C64.1913 11.6617 66.6824 9.72222 70.084 9.72222Z" fill="#1D1D1F"/>
<path d="M12.9967 9.72222C15.949 9.72222 18.3397 10.6191 20.1689 12.4129C21.998 14.2067 22.9126 17.0415 22.9126 20.9174V35H17.6699V21.3498C17.6699 16.5771 15.7083 14.1907 11.7933 14.1907C9.73947 14.1907 8.1189 14.9114 6.93155 16.3529C5.77629 17.7623 5.24272 19.7162 5.24272 22.2147V35H0V9.72222H5.24272V14C7.10397 11.6617 8.93204 9.72222 12.9967 9.72222Z" fill="#1D1D1F"/>
</svg>
