<svg width="186" height="40" viewBox="0 0 186 40" fill="none" xmlns="http://www.w3.org/2000/svg">
<g clip-path="url(#clip0_928_5826)">
<path d="M41.2688 4.27832H23.6787V35.7217H41.2688V4.27832Z" fill="#9A9A9A"/>
<path d="M24.8498 20C24.8498 13.6117 27.8682 7.94175 32.4999 4.27832C29.0912 1.61165 24.7913 0 20.101 0C8.99018 0 0 8.94498 0 20C0 31.055 8.99018 40 20.101 40C24.7913 40 29.0912 38.3884 32.4999 35.7217C27.8617 32.11 24.8498 26.3884 24.8498 20Z" fill="#9A9A9A"/>
<path d="M64.9999 20C64.9999 31.055 56.0098 40 44.8989 40C40.2087 40 35.9087 38.3884 32.5 35.7217C37.1902 32.0518 40.1501 26.3884 40.1501 20C40.1501 13.6117 37.1317 7.94175 32.5 4.27832C35.9022 1.61165 40.2021 0 44.8924 0C56.0098 0 64.9999 9.00324 64.9999 20Z" fill="#D6D6D6"/>
<path d="M89.4617 26.7961V20.6178C89.4617 18.2545 87.9572 16.7069 85.3745 16.7069C84.0831 16.7069 82.6789 17.1148 81.7135 18.4584C80.9613 17.3308 79.8831 16.7069 78.2657 16.7069C77.1875 16.7069 76.1093 17.0189 75.2567 18.1465V16.9109H73V26.7961H75.2567V21.3376C75.2567 19.5861 76.2221 18.7584 77.7266 18.7584C79.2311 18.7584 79.9834 19.6821 79.9834 21.3376V26.7961H82.2401V21.3376C82.2401 19.5861 83.3183 18.7584 84.71 18.7584C86.2145 18.7584 86.9667 19.6821 86.9667 21.3376V26.7961H89.4617ZM122.937 16.9109H119.276V13.9237H117.019V16.9109H114.975V18.8663H117.019V23.401C117.019 25.6684 117.984 27 120.567 27C121.532 27 122.611 26.6881 123.363 26.2802L122.711 24.4207C122.059 24.8286 121.307 24.9366 120.768 24.9366C119.689 24.9366 119.263 24.3128 119.263 23.2931V18.8663H122.924V16.9109H122.937ZM142.094 16.6949C140.803 16.6949 139.937 17.3188 139.398 18.1345V16.8989H137.142V26.7841H139.398V21.2177C139.398 19.5741 140.151 18.6384 141.555 18.6384C141.981 18.6384 142.52 18.7464 142.959 18.8423L143.611 16.7789C143.16 16.6949 142.52 16.6949 142.094 16.6949ZM113.145 17.7267C112.067 17.0069 110.562 16.6949 108.945 16.6949C106.362 16.6949 104.645 17.9306 104.645 19.886C104.645 21.5296 105.936 22.4653 108.193 22.7652L109.271 22.8732C110.449 23.0771 111.101 23.389 111.101 23.9049C111.101 24.6247 110.236 25.1405 108.732 25.1405C107.227 25.1405 106.036 24.6247 105.284 24.1088L104.206 25.7524C105.384 26.5801 107.002 26.988 108.619 26.988C111.628 26.988 113.358 25.6444 113.358 23.7969C113.358 22.0454 111.954 21.1217 109.81 20.8098L108.732 20.7018C107.766 20.5938 107.014 20.3899 107.014 19.7781C107.014 19.0583 107.766 18.6504 108.957 18.6504C110.249 18.6504 111.54 19.1662 112.192 19.4781L113.145 17.7267ZM173.187 16.6949C171.895 16.6949 171.03 17.3188 170.491 18.1345V16.8989H168.234V26.7841H170.491V21.2177C170.491 19.5741 171.243 18.6384 172.648 18.6384C173.074 18.6384 173.613 18.7464 174.052 18.8423L174.704 16.8029C174.265 16.6949 173.626 16.6949 173.187 16.6949ZM144.351 21.8535C144.351 24.8406 146.507 27 149.842 27C151.347 27 152.425 26.6881 153.503 25.8723L152.425 24.1208C151.56 24.7446 150.707 25.0446 149.729 25.0446C147.899 25.0446 146.607 23.8089 146.607 21.8535C146.607 19.994 147.899 18.7584 149.729 18.6624C150.695 18.6624 151.56 18.9743 152.425 19.5861L153.503 17.8346C152.425 17.0069 151.347 16.7069 149.842 16.7069C146.507 16.6949 144.351 18.8663 144.351 21.8535ZM165.225 21.8535V16.9109H162.969V18.1465C162.216 17.2228 161.138 16.7069 159.734 16.7069C156.825 16.7069 154.569 18.8663 154.569 21.8535C154.569 24.8406 156.825 27 159.734 27C161.239 27 162.317 26.4841 162.969 25.5604V26.7961H165.225V21.8535ZM156.938 21.8535C156.938 20.102 158.117 18.6624 160.06 18.6624C161.891 18.6624 163.182 20.006 163.182 21.8535C163.182 23.605 161.891 25.0446 160.06 25.0446C158.129 24.9366 156.938 23.593 156.938 21.8535ZM129.933 16.6949C126.924 16.6949 124.767 18.7584 124.767 21.8415C124.767 24.9366 126.924 26.988 130.045 26.988C131.55 26.988 133.054 26.5801 134.245 25.6444L133.167 24.0968C132.302 24.7206 131.224 25.1285 130.158 25.1285C128.754 25.1285 127.362 24.5047 127.036 22.7652H134.672C134.672 22.4533 134.672 22.2494 134.672 21.9374C134.772 18.7584 132.829 16.6949 129.933 16.6949ZM129.933 18.5544C131.337 18.5544 132.302 19.3822 132.515 20.9177H127.137C127.35 19.5861 128.315 18.5544 129.933 18.5544ZM186 21.8535V13H183.743V18.1465C182.991 17.2228 181.913 16.7069 180.509 16.7069C177.6 16.7069 175.343 18.8663 175.343 21.8535C175.343 24.8406 177.6 27 180.509 27C182.013 27 183.091 26.4841 183.743 25.5604V26.7961H186V21.8535ZM177.713 21.8535C177.713 20.102 178.891 18.6624 180.835 18.6624C182.665 18.6624 183.956 20.006 183.956 21.8535C183.956 23.605 182.665 25.0446 180.835 25.0446C178.891 24.9366 177.713 23.593 177.713 21.8535ZM102.162 21.8535V16.9109H99.9054V18.1465C99.1531 17.2228 98.0749 16.7069 96.6707 16.7069C93.762 16.7069 91.5053 18.8663 91.5053 21.8535C91.5053 24.8406 93.762 27 96.6707 27C98.1752 27 99.2534 26.4841 99.9054 25.5604V26.7961H102.162V21.8535ZM93.7746 21.8535C93.7746 20.102 94.9531 18.6624 96.8964 18.6624C98.7268 18.6624 100.018 20.006 100.018 21.8535C100.018 23.605 98.7268 25.0446 96.8964 25.0446C94.9531 24.9366 93.7746 23.593 93.7746 21.8535Z" fill="#9A9A9A"/>
</g>
<defs>
<clipPath id="clip0_928_5826">
<rect width="186" height="40" fill="white"/>
</clipPath>
</defs>
</svg>
