<svg width="177" height="40" viewBox="0 0 177 40" fill="none" xmlns="http://www.w3.org/2000/svg">
<g clip-path="url(#clip0_928_5862)">
<path d="M32.6087 14.896C32.3651 10.7857 30.4745 6.92983 27.3393 4.14907C24.204 1.3683 20.0718 -0.117731 15.8222 0.00729561C11.5726 0.132322 7.54115 1.85852 4.58605 4.81847C1.63095 7.77842 -0.0144428 11.7384 0.000110529 15.8553C-0.0155451 19.9361 1.6325 23.8579 4.58611 26.7686L15.345 14.9003H32.5952L32.6087 14.896ZM22.2577 40H43V26.8554L32.5997 14.9003L22.2532 26.8554V40H22.2577Z" fill="#9A9A9A"/>
<path d="M147.552 28.6508H143.603V16.4824H147.552V28.653V28.6508ZM143.384 13.1965C143.384 12.762 143.513 12.3374 143.754 11.9762C143.995 11.615 144.337 11.3334 144.738 11.1672C145.139 11.001 145.58 10.9575 146.006 11.0422C146.431 11.127 146.822 11.3361 147.129 11.6433C147.436 11.9505 147.645 12.3419 147.73 12.768C147.814 13.194 147.771 13.6357 147.605 14.037C147.439 14.4384 147.158 14.7814 146.797 15.0227C146.436 15.2641 146.012 15.3929 145.578 15.3929C145.286 15.4064 144.994 15.3587 144.722 15.253C144.449 15.1472 144.202 14.9857 143.995 14.7788C143.788 14.5719 143.627 14.3241 143.521 14.0513C143.416 13.7785 143.368 13.4866 143.382 13.1943L143.384 13.1965ZM93.076 16.4911V28.6596H89.1269V16.4911H93.076ZM88.9075 13.1965C88.9075 12.762 89.0362 12.3374 89.2772 11.9762C89.5183 11.615 89.861 11.3334 90.2619 11.1672C90.6628 11.001 91.1039 10.9575 91.5295 11.0422C91.9551 11.127 92.346 11.3361 92.6528 11.6433C92.9597 11.9505 93.1686 12.3419 93.2533 12.768C93.3379 13.194 93.2945 13.6357 93.1284 14.037C92.9624 14.4384 92.6812 14.7814 92.3204 15.0227C91.9596 15.2641 91.5354 15.3929 91.1015 15.3929C90.8091 15.407 90.5171 15.3598 90.244 15.2543C89.971 15.1489 89.7229 14.9875 89.5158 14.7805C89.3086 14.5736 89.1469 14.3255 89.0411 14.0524C88.9352 13.7792 88.8874 13.487 88.9009 13.1943L88.9075 13.1965ZM83.9601 16.4911V13.4952H81.4129L81.1101 14.7296C80.8095 15.852 80.4519 16.4868 79.2343 16.7064L78.3567 16.8448V19.2609H80.057V25.411C80.057 28.15 81.8407 29 83.8197 29C85.4103 29 86.4524 28.6178 87.3629 27.9303V25.4C86.7472 25.7029 86.0741 25.8714 85.3884 25.8942C84.4559 25.8942 83.9601 25.4549 83.9601 24.416V19.2499H87.1984V16.4802H83.9535L83.9601 16.4911ZM54.9579 28.6508V22.5666C54.9579 20.5897 55.8355 19.3334 57.3713 19.3334C58.7425 19.3334 59.4007 20.2361 59.4007 22.0438V28.6486H63.3499V20.9236C63.3499 17.8266 61.7329 16.1529 59.0672 16.1529C56.8447 16.1529 55.445 17.3324 54.9492 19.1423V16.4802H51V28.6508H54.9579Z" fill="#9A9A9A"/>
<path d="M101.321 16.1441C97.3434 16.1441 94.7392 18.8304 94.7392 22.6391C94.7392 26.4477 97.3456 28.9693 101.321 28.9693C105.297 28.9693 107.989 26.4477 107.989 22.6391C107.989 18.8304 105.325 16.1441 101.321 16.1441ZM101.321 25.9272C99.6471 25.9272 98.6049 24.7191 98.6049 22.6325C98.6049 20.5459 99.6449 19.1797 101.321 19.1797C102.997 19.1797 104.121 20.5502 104.121 22.6325C104.121 24.7147 102.995 25.936 101.321 25.936V25.9272Z" fill="#9A9A9A"/>
<path d="M113.348 28.6507H109.399V16.4823H113.348V19.1422C113.84 17.3345 115.242 16.155 117.467 16.155C120.13 16.155 121.749 17.8265 121.749 20.9257V28.6529H117.8V22.0481C117.8 20.2404 117.142 19.3377 115.771 19.3377C114.235 19.3377 113.357 20.5963 113.357 22.5709V28.6639L113.348 28.6507ZM136.559 24.4313H136.447L134.437 16.4845H130.707L128.678 24.4313H128.568L126.453 16.4845H122.504L126.1 28.6507H130.297L132.329 20.7566H132.438L134.468 28.6463H138.667L142.287 16.4779H138.695L136.554 24.4247L136.559 24.4313Z" fill="#9A9A9A"/>
<path d="M154.799 16.1439C151.618 16.1439 149.255 18.6106 149.255 22.5554C149.255 26.5003 151.616 28.9669 154.799 28.9669C156.5 28.9669 158.206 28.0356 158.834 26.4739V28.6374H162.812V11.4765H158.834V18.6765C158.233 17.1148 156.528 16.1439 154.799 16.1439ZM156.061 19.2695C157.735 19.2695 158.834 20.5039 158.834 22.4192V22.6916C158.834 24.6377 157.737 25.8699 156.061 25.8699C154.385 25.8699 153.261 24.5849 153.261 22.5532C153.261 20.5215 154.358 19.2585 156.061 19.2585V19.2695ZM176.684 25.3954C175.844 27.6754 173.79 28.9844 170.914 28.9844C167.037 28.9844 164.284 26.6211 164.284 22.7487C164.284 18.8763 167.096 16.1439 170.837 16.1439C174.883 16.1439 177 18.9115 177 22.2369V23.445H168.198C168.307 25.066 169.514 26.0017 171.05 26.0017C172.329 26.0017 173.154 25.5624 173.617 24.5849L176.688 25.4064L176.684 25.3954ZM168.248 21.3188H173.172C173.09 20.1107 172.32 19.0103 170.804 19.0103C169.218 19.0213 168.474 20.0405 168.255 21.3298L168.248 21.3188ZM69.2254 21.7581C66.5312 22.1974 64.7672 23.2715 64.7672 25.6041C64.7672 27.6907 66.303 28.9273 68.7559 28.9273C70.6559 28.9273 72.1697 28.1849 72.8542 26.7836C73.2118 28.1564 74.2847 28.9273 75.7437 28.9273C76.6711 28.9611 77.5826 28.6801 78.3304 28.13V26.028C78.0128 26.1796 77.6642 26.2548 77.3124 26.2477C76.8166 26.2477 76.5423 25.9709 76.5423 25.3405V20.8883C76.5423 17.5651 74.2584 16.1352 71.0574 16.1352C67.8564 16.1352 65.873 17.721 65.2982 20.0602L68.8897 20.8026C69.1091 19.801 69.6927 19.1048 70.838 19.1048C72.049 19.1048 72.6261 19.7945 72.6261 20.9454V21.2222L69.2122 21.7713L69.2254 21.7581ZM68.6177 25.1758C68.6177 24.2137 69.3878 23.8865 70.6273 23.6624L72.6326 23.3066V23.7723C72.6326 25.5053 71.4764 26.3289 70.0196 26.3289C69.1684 26.3289 68.6177 25.8896 68.6177 25.1758Z" fill="#9A9A9A"/>
</g>
<defs>
<clipPath id="clip0_928_5862">
<rect width="177" height="40" fill="white"/>
</clipPath>
</defs>
</svg>
