<svg width="100" height="40" viewBox="0 0 100 40" fill="none" xmlns="http://www.w3.org/2000/svg">
<path fill-rule="evenodd" clip-rule="evenodd" d="M68.206 9H72.1319V30.8152H68.206V9ZM100 18.1908V14.8055H95.9403V10.3918H92.0144V26.483C92.0144 27.9615 92.3879 29.0883 93.1245 29.8321C93.8603 30.5765 95.0076 30.9539 96.5339 30.9539H100V27.5686H97.4638C96.9122 27.5686 96.5167 27.4478 96.2875 27.2093C96.0769 26.991 95.9403 26.4397 95.9403 25.8048V18.1908H100ZM41.5375 26.5691L45.5969 14.8051H49.7215L43.8614 30.8154H39.2137L33.3536 14.8051H37.4782L41.5375 26.5691ZM85.6152 22.8256C85.6152 23.8391 85.4606 24.7209 85.1568 25.4464C84.8551 26.1679 84.423 26.7211 83.8721 27.09C83.3213 27.459 82.6441 27.6462 81.8592 27.6462C80.7367 27.6462 79.8897 27.2788 79.3423 26.5546C78.7886 25.8226 78.5077 24.7134 78.5077 23.2577V14.8055H74.5818V23.6899C74.5818 25.0733 74.7551 26.2466 75.0982 27.1769C75.4413 28.1101 75.9128 28.8692 76.4989 29.4326C77.0849 29.9955 77.769 30.402 78.5325 30.6413C79.2919 30.8794 80.1092 31 80.9611 31C82.1884 31 83.2046 30.7783 83.9798 30.341C84.6867 29.9409 85.2797 29.4732 85.7436 28.9487L86.095 30.8151H89.541V14.8055H85.6152V22.8256ZM62.2045 15.6498C60.9672 14.9666 59.498 14.6205 57.8383 14.6205C56.1988 14.6205 54.7351 14.9666 53.4876 15.6496C52.2387 16.3343 51.2573 17.3013 50.5708 18.5236C49.8852 19.7448 49.5376 21.1923 49.5376 22.8256C49.5376 24.4388 49.8852 25.8762 50.5708 27.0974C51.2569 28.3193 52.2385 29.2861 53.4876 29.9707C54.7351 30.6537 56.1989 30.9998 57.8383 30.9998C59.4979 30.9998 60.9671 30.6537 62.2045 29.9705C63.443 29.2862 64.4191 28.3195 65.1056 27.0974C65.7913 25.8755 66.1391 24.4382 66.1391 22.8256C66.1391 21.1929 65.7913 19.7454 65.1056 18.5235C64.4187 17.3011 63.4428 16.334 62.2045 15.6498ZM60.1303 27.0892C59.4978 27.4993 58.7267 27.7074 57.8385 27.7074C56.9706 27.7074 56.2045 27.4994 55.5614 27.089C54.9172 26.6782 54.412 26.0983 54.0595 25.3653C53.7055 24.6316 53.5257 23.7773 53.5257 22.8256C53.5257 21.8543 53.7053 20.995 54.0595 20.2712C54.4118 19.5481 54.9174 18.9681 55.5622 18.5469C56.2051 18.1262 56.971 17.9129 57.8384 17.9129C58.7262 17.9129 59.4969 18.1262 60.1296 18.5464C60.764 18.9679 61.2647 19.5481 61.6178 20.2714C61.9716 20.9969 62.1511 21.8563 62.1511 22.8256C62.1511 23.7751 61.9716 24.6298 61.6178 25.3653C61.2647 26.0985 60.7643 26.6784 60.1303 27.0892ZM4.08015 14.3839H0V30.8154H4.08015V14.3839ZM16.8754 15.3235C16.8754 11.8369 14.0245 9.00024 10.5201 9.00024H0V12.5093H10.0199C11.6058 12.5093 12.9195 13.7501 12.9486 15.2752C12.963 16.0388 12.6753 16.7595 12.1383 17.3045C11.6011 17.8496 10.8833 18.1501 10.1171 18.1501H6.21386C6.07529 18.1501 5.9625 18.2622 5.9625 18.4003V21.519C5.9625 21.572 5.97895 21.6227 6.00989 21.6654L12.6324 30.8155H17.4801L10.8423 21.6404C14.1851 21.4732 16.8754 18.676 16.8754 15.3235ZM29.4215 15.5566C28.2462 14.9354 26.8506 14.6205 25.2736 14.6205C23.6946 14.6205 22.2828 14.9668 21.0774 15.6502C19.8699 16.3343 18.9201 17.3015 18.2542 18.5244C17.589 19.7446 17.2518 21.2022 17.2518 22.8568C17.2518 24.4695 17.5942 25.9064 18.2698 27.1278C18.9469 28.352 19.9234 29.3138 21.172 29.9864C22.4181 30.6591 23.9129 31 25.6144 31C26.9643 31 28.1765 30.7482 29.2173 30.251C30.2584 29.7527 31.1083 29.074 31.7436 28.2338C32.3471 27.4353 32.7542 26.5321 32.9534 25.5497L32.9749 25.4449H29.0705L29.0521 25.5078C28.8371 26.2406 28.42 26.8197 27.812 27.2292C27.1593 27.6695 26.3578 27.8929 25.4291 27.8929C24.642 27.8929 23.9311 27.725 23.3164 27.3937C22.7046 27.0644 22.2263 26.5935 21.895 25.9935C21.5624 25.3914 21.3731 24.667 21.3327 23.8448V23.7162H33.1262L33.1394 23.6444C33.1805 23.4191 33.2069 23.1868 33.2184 22.9533C33.2281 22.7257 33.2338 22.4984 33.2338 22.269C33.2127 20.7178 32.8646 19.3534 32.1992 18.2133C31.5312 17.0718 30.5966 16.1779 29.4215 15.5566ZM27.9909 18.5717C28.6617 19.1339 29.079 19.9328 29.232 20.9479H21.4682C21.5569 20.2893 21.7765 19.7189 22.1215 19.251C22.4833 18.7602 22.9469 18.3745 23.4995 18.1048C24.0527 17.8342 24.6601 17.6968 25.3045 17.6968C26.3939 17.6967 27.2978 17.9911 27.9909 18.5717Z" fill="#9A9A9A"/>
</svg>
