<svg width="162" height="40" viewBox="0 0 162 40" fill="none" xmlns="http://www.w3.org/2000/svg">
<g clip-path="url(#clip0_928_5856)">
<path d="M50 28.0336C50.0602 27.0067 50.1806 26.3423 50.4817 25.4966C51.8667 26.1611 53.6731 26.4631 54.9979 26.4631C57.286 26.4631 58.6108 25.7383 58.6108 24.2282C58.6108 22.7785 57.6473 22.1141 55.3591 21.0872L54.0946 20.604C51.7462 19.5772 50.1806 18.2483 50.1806 15.651C50.1806 12.8121 52.1677 11 56.1419 11C57.7677 11 59.2731 11.2416 60.6581 11.7248C60.5978 12.6913 60.4172 13.4765 60.1763 14.2013C58.8516 13.7181 57.2258 13.4765 56.0817 13.4765C53.914 13.4765 52.9505 14.3221 52.9505 15.651C52.9505 16.9195 53.914 17.7047 55.6602 18.4295L56.9849 18.9732C60.1161 20.302 61.4409 21.7517 61.4409 24.1678C61.4409 27.0067 59.2731 29 55.0581 29C53.071 29 51.3849 28.698 50 28.0336ZM74.7484 16.1342V28.5772H72.2194L72.0989 27.0671C71.3763 28.1544 70.3527 28.8792 68.6065 28.8792C65.3548 28.8792 63.1269 26.4631 63.1269 22.2953C63.1269 17.9463 65.4753 15.4094 70.0516 15.4094C71.8581 15.4698 73.3634 15.651 74.7484 16.1342ZM72.0387 25.7383V17.9463C71.4968 17.8255 70.8344 17.8255 70.0516 17.8255C67.2215 17.8255 65.8968 19.5772 65.8968 22.3557C65.8968 24.8926 66.9204 26.7047 69.329 26.7047C70.4731 26.6443 71.3161 26.2819 72.0387 25.7383ZM88.7183 20.2416V28.5772H86.0086V20.7248C86.0086 18.7315 85.3462 17.8255 82.6366 17.8255C81.9742 17.8255 81.2516 17.8859 80.4688 18.0067V28.5772H77.7591V16.1342C79.5054 15.7114 81.4323 15.4094 82.6968 15.4094C87.2731 15.4698 88.7183 17.2215 88.7183 20.2416ZM96.3054 26.5839C97.0882 26.5839 97.871 26.4631 98.4129 26.2215C98.3527 26.9463 98.2323 27.7919 98.1118 28.5168C97.3893 28.8188 96.5462 28.9396 95.8237 28.9396C93.1742 28.9396 91.4882 27.7315 91.4882 24.7114V11.604C92.3312 11.302 93.3548 11.1812 94.1979 11.1812V15.8926H98.5333C98.4731 16.7383 98.4129 17.5235 98.2925 18.2483H94.1979V24.349C94.1979 25.9195 94.9806 26.5839 96.3054 26.5839ZM110.938 16.1342V28.5772H108.409L108.288 27.0671C107.566 28.1544 106.542 28.8792 104.796 28.8792C101.544 28.8792 99.3161 26.4631 99.3161 22.2953C99.3161 17.9463 101.665 15.4094 106.241 15.4094C108.047 15.4698 109.492 15.651 110.938 16.1342ZM108.168 25.7383V17.9463C107.626 17.8255 106.963 17.8255 106.181 17.8255C103.351 17.8255 102.026 19.5772 102.026 22.3557C102.026 24.8926 103.049 26.7047 105.458 26.7047C106.602 26.6443 107.505 26.2819 108.168 25.7383ZM124.908 20.2416V28.5772H122.138V20.7248C122.138 18.7315 121.475 17.8255 118.766 17.8255C118.103 17.8255 117.381 17.8859 116.598 18.0067V28.5772H113.888V16.1342C115.634 15.7114 117.561 15.4094 118.826 15.4094C123.402 15.4698 124.908 17.2215 124.908 20.2416ZM138.697 11.1812V28.5772H136.168L136.047 27.0067C135.325 28.1544 134.301 28.8792 132.495 28.8792C129.243 28.8792 127.015 26.4631 127.015 22.2953C127.015 17.9463 129.363 15.4094 133.94 15.4094C134.662 15.4094 135.325 15.4698 135.987 15.5906V11.4832C136.83 11.2416 137.794 11.1812 138.697 11.1812ZM135.987 25.7383V18.0671C135.265 17.9463 134.542 17.8255 133.819 17.8255C131.11 17.8255 129.845 19.5168 129.845 22.3557C129.845 24.8926 130.869 26.7047 133.277 26.7047C134.361 26.6443 135.265 26.2819 135.987 25.7383ZM152.426 23.2617H143.695C144.056 25.4966 145.32 26.5235 147.789 26.5235C149.295 26.5235 150.8 26.2215 152.125 25.557C152.004 26.2819 151.884 27.2483 151.703 28.0336C150.439 28.5772 149.174 28.8188 147.669 28.8188C143.092 28.8188 140.925 26.2819 140.925 22.0537C140.925 18.3691 142.611 15.4094 146.946 15.4094C150.86 15.4094 152.546 17.9463 152.546 21.0872C152.546 21.9329 152.546 22.5369 152.426 23.2617ZM143.695 20.9664H149.837C149.837 18.9128 148.753 17.7047 146.886 17.7047C144.899 17.7651 143.875 18.8523 143.695 20.9664ZM162 15.5906C162 16.4362 161.88 17.4027 161.759 17.9463C161.097 17.8859 160.495 17.8255 159.712 17.8255C159.049 17.8255 158.387 17.8859 157.725 17.9463V28.5772H155.015V16.1342C156.159 15.7114 158.146 15.4094 159.652 15.4094C160.434 15.4698 161.398 15.4698 162 15.5906Z" fill="#9A9A9A"/>
<path d="M30.2045 18.4096C30.1086 16.9639 29.725 15.5181 28.9579 14.2651L22.4376 2.79518C21.9582 1.92771 21.5746 0.963855 21.3828 0L21.0952 0.481928C19.4651 3.27711 19.4651 6.84337 21.0952 9.63855L26.369 18.7952C27.9991 21.5904 27.9991 25.1566 26.369 27.9518L26.0813 28.4337C25.8895 27.4699 25.506 26.506 25.0266 25.6386L20.2322 17.253L17.1638 11.8554C16.6844 10.988 16.3008 10.0241 16.109 9.06024L15.8214 9.54217C14.1913 12.3374 14.1913 15.8072 15.8214 18.6988L21.0952 27.8554C22.7253 30.6506 22.7253 34.2169 21.0952 37.012L20.8075 37.494C20.6157 36.5301 20.2322 35.5663 19.7528 34.6988L13.1365 23.2289C12.2736 21.6867 11.89 19.9518 11.89 18.2169C4.89025 20.0482 0 24 0 28.5301C0 34.8916 9.39694 40 20.9993 40C32.6016 40 41.9986 34.8916 41.9986 28.5301C42.0945 24.1928 37.3001 20.241 30.2045 18.4096Z" fill="#9A9A9A"/>
</g>
<defs>
<clipPath id="clip0_928_5856">
<rect width="162" height="40" fill="white"/>
</clipPath>
</defs>
</svg>
