<svg width="21" height="20" viewBox="0 0 21 20" fill="none" xmlns="http://www.w3.org/2000/svg">
<path d="M17.2123 11.3871C17.2123 10.5995 17.2037 10.3064 17.1581 10.1239L17.1359 10.0515C17.0227 9.73404 16.7915 9.47324 16.4914 9.32453L16.3591 9.26847C16.1758 9.20185 15.9199 9.1907 15.0301 9.1907H6.30316C5.52512 9.1907 5.23175 9.19923 5.04783 9.24586L4.97415 9.26847C4.65559 9.38429 4.39832 9.61938 4.25237 9.91952L4.19733 10.0515C4.1326 10.233 4.12098 10.4873 4.12098 11.3871V15.996C4.12098 16.5793 4.12137 16.972 4.14584 17.2746C4.16961 17.5684 4.21294 17.7115 4.26125 17.8072L4.31008 17.8967C4.43358 18.1 4.61167 18.2662 4.825 18.376L4.90756 18.4121C5.00261 18.4466 5.13838 18.4754 5.35767 18.4935C5.65838 18.5183 6.04871 18.5189 6.62632 18.5189H14.707C15.2846 18.5189 15.6749 18.5183 15.9756 18.4935C16.2676 18.4694 16.4113 18.4258 16.5083 18.376L16.5979 18.3253C16.8005 18.1999 16.9644 18.0204 17.072 17.8072L17.1075 17.7249C17.141 17.6306 17.1696 17.4949 17.1874 17.2746C17.2119 16.972 17.2123 16.5793 17.2123 15.996V11.3871ZM9.93954 15.0927V12.7778C9.93954 12.3687 10.265 12.0373 10.6666 12.0373C11.0683 12.0373 11.3937 12.3687 11.3937 12.7778V15.0927C11.3937 15.5018 11.0683 15.8333 10.6666 15.8333C10.265 15.8333 9.93954 15.5018 9.93954 15.0927ZM14.303 5.14603C14.303 3.12829 12.681 1.48115 10.6666 1.48115C8.65224 1.48115 7.03026 3.12829 7.03026 5.14603V7.70956H14.303V5.14603ZM15.7572 7.71589C16.1793 7.72626 16.5337 7.75887 16.8483 7.87322L16.9904 7.92929C17.6917 8.22975 18.242 8.81389 18.5031 9.54607L18.5608 9.73325C18.6754 10.1822 18.6665 10.7121 18.6665 11.3871V15.996C18.6665 16.5548 18.6669 17.0191 18.6363 17.3967C18.6089 17.7348 18.5544 18.0536 18.4259 18.3561L18.3664 18.4845C18.1352 18.9426 17.7836 19.3249 17.3535 19.5913L17.1644 19.698C16.8293 19.8703 16.4741 19.9387 16.0928 19.9702C15.7198 20.0009 15.2608 20 14.707 20H6.62632C6.0725 20 5.61352 20.0009 5.24048 19.9702C4.90696 19.9426 4.59343 19.8873 4.29588 19.7586L4.16892 19.698C3.71714 19.4655 3.33805 19.1118 3.07339 18.6762L2.96686 18.4845C2.79506 18.144 2.72824 17.783 2.69697 17.3967C2.66641 17.0191 2.66679 16.5548 2.66679 15.996V11.3871C2.66679 10.6159 2.65606 10.0343 2.83014 9.54607L2.88607 9.40139C3.18514 8.68968 3.76423 8.13533 4.48497 7.87322L4.66963 7.81535C4.93728 7.74573 5.23447 7.72429 5.57607 7.71589V5.14603C5.57607 2.29774 7.86108 0 10.6666 0C13.4722 0 15.7572 2.29774 15.7572 5.14603V7.71589Z" fill="white"/>
</svg>
