<svg width="36" height="36" viewBox="0 0 36 36" fill="none" xmlns="http://www.w3.org/2000/svg">
<path d="M16.9004 8.5C16.9004 7.89249 17.3925 7.40039 18 7.40039C18.6075 7.40039 19.0996 7.89249 19.0996 8.5V17.4883L25.2109 22.6602L25.293 22.7373C25.6799 23.1386 25.7077 23.7762 25.3398 24.2109C24.9719 24.6456 24.3387 24.7234 23.8789 24.4082L23.7891 24.3398L17.2891 18.8398C17.0422 18.6308 16.9004 18.3235 16.9004 18V8.5Z" fill="black"/>
<path fill-rule="evenodd" clip-rule="evenodd" d="M18 36C8.05887 36 0 27.9411 0 18C0 8.05887 8.05887 0 18 0C27.9411 0 36 8.05887 36 18C36 27.9411 27.9411 36 18 36ZM18 2.2002C26.7261 2.2002 33.7998 9.2739 33.7998 18C33.7998 26.7261 26.7261 33.7998 18 33.7998C9.2739 33.7998 2.2002 26.7261 2.2002 18C2.2002 9.2739 9.2739 2.2002 18 2.2002Z" fill="black"/>
</svg>
