<svg width="21" height="20" viewBox="0 0 21 20" fill="none" xmlns="http://www.w3.org/2000/svg">
<path d="M10.3328 2.25C13.3105 2.25 15.5907 3.60067 17.2077 5.19009C18.8148 6.76977 19.8005 8.61417 20.2255 9.71983L20.3333 9.99953L20.2255 10.2792C19.8005 11.3849 18.8147 13.2293 17.2077 14.809C15.5907 16.3984 13.3105 17.75 10.3328 17.75C7.35539 17.7499 5.07589 16.3983 3.45892 14.809C2.05265 13.4267 1.12232 11.8418 0.627007 10.7265L0.441125 10.2792L0.333313 9.99953L0.441125 9.71983L0.627007 9.27251C1.12235 8.15722 2.05276 6.57227 3.45892 5.19009C5.07588 3.60082 7.35548 2.25006 10.3328 2.25ZM10.3328 3.79256C7.8501 3.79262 5.93124 4.90888 4.51845 6.29757C3.22866 7.5654 2.39006 9.03659 1.97558 9.99953C2.39 10.9624 3.22863 12.4336 4.51845 13.7015C5.93124 15.0902 7.8501 16.2064 10.3328 16.2065C12.8157 16.2065 14.7344 15.0902 16.1472 13.7015C17.4371 12.4336 18.2756 10.9625 18.6901 9.99953C18.2756 9.03656 17.437 7.56536 16.1472 6.29757C14.7344 4.90888 12.8156 3.79256 10.3328 3.79256ZM12.7688 9.91666C12.7688 8.55957 11.6801 7.45591 10.3328 7.45591C8.98573 7.45602 7.89691 8.55964 7.89686 9.91666C7.89686 11.2737 8.9857 12.3773 10.3328 12.3774C11.6801 12.3774 12.7688 11.2738 12.7688 9.91666ZM14.2921 9.91666C14.2921 12.1295 12.5175 13.92 10.3328 13.92C8.14824 13.9199 6.37449 12.1294 6.37449 9.91666C6.37454 7.70392 8.14827 5.91346 10.3328 5.91335C12.5175 5.91335 14.2921 7.70385 14.2921 9.91666Z" fill="white"/>
</svg>
