<svg width="20" height="20" viewBox="0 0 20 20" fill="none" xmlns="http://www.w3.org/2000/svg">
<path d="M12.842 11.9471C13.0685 11.6263 13.4903 11.5412 13.8141 11.7381L13.8774 11.7812L13.9136 11.8084L14.2807 12.1027C14.4244 12.2154 14.5537 12.3208 14.6659 12.4214C14.8964 12.628 15.1074 12.8581 15.2518 13.158L15.326 13.3295C15.4605 13.6766 15.5114 14.0521 15.4743 14.4242L15.448 14.6097C15.4022 14.8642 15.3064 15.0887 15.1885 15.2986H16.7646C17.2127 15.2986 17.5057 15.2983 17.7294 15.2799C17.9453 15.2621 18.0326 15.2308 18.0794 15.2068L18.1897 15.1393C18.2935 15.0632 18.3762 14.9638 18.4329 14.8515L18.4682 14.7503C18.4802 14.6988 18.4912 14.6253 18.4999 14.5188C18.5179 14.2963 18.5189 14.0038 18.5189 13.5507V10.7597C18.5189 10.3066 18.5179 10.0141 18.4999 9.79153C18.4913 9.68547 18.4802 9.61243 18.4682 9.56098L18.4329 9.45882C18.3762 9.34675 18.2933 9.24805 18.1897 9.17204L18.0794 9.10362C18.0326 9.07958 17.9453 9.04923 17.7294 9.03145C17.5057 9.01305 17.2128 9.01177 16.7646 9.01177H15.7166C15.5321 9.01177 15.37 9.01387 15.2139 8.99959L15.0583 8.97897C14.9308 8.95688 14.8052 8.92413 14.6831 8.88056L14.5628 8.8337C14.4663 8.79296 14.3741 8.7438 14.2807 8.68843L13.9877 8.5038L12.842 7.76903C12.351 7.45397 12.1435 7.33028 12.0146 7.27886L11.9043 7.247C11.7925 7.22836 11.6786 7.23344 11.5698 7.26012L11.4631 7.29386C11.371 7.33021 11.2752 7.40008 10.9992 7.66406L10.6565 7.99864L7.78371 10.8412L7.75839 10.8665C7.48585 11.1434 7.45284 11.5673 7.67158 11.8806L7.69238 11.9096L7.71951 11.9471L7.77738 12.0174C8.08435 12.3472 8.61998 12.3722 8.95651 12.0455L8.98906 12.0127L11.0444 9.95273L11.1014 9.90119C11.3963 9.66005 11.8257 9.68469 12.0924 9.97054C12.3767 10.2754 12.3684 10.762 12.0743 11.0568L10.019 13.1168L9.96926 13.1664C9.03907 14.0694 7.57355 14.0148 6.70947 13.0821L6.5458 12.8843L6.5033 12.8262L6.47165 12.7803C5.82003 11.847 5.92869 10.5751 6.72122 9.76998L6.76011 9.73061L9.63288 6.88805L9.96293 6.56283C10.2829 6.25363 10.5825 5.99821 10.935 5.85899L11.0806 5.80744C11.4225 5.69858 11.785 5.67246 12.1394 5.73152L12.3239 5.77183C12.7489 5.89005 13.1496 6.16071 13.6215 6.46349L14.7672 7.19826L15.0176 7.35665C15.0688 7.38731 15.0957 7.40005 15.1216 7.41101L15.2102 7.44288C15.2405 7.45176 15.2712 7.45902 15.3025 7.46443L15.4209 7.4738C15.4806 7.47562 15.57 7.47662 15.7166 7.47662H16.7646C17.1892 7.47662 17.5509 7.47567 17.847 7.50005C18.1512 7.52511 18.45 7.58051 18.7368 7.72779L18.895 7.81682C19.2547 8.03924 19.5505 8.35986 19.7459 8.74654L19.7974 8.85807C19.9088 9.11999 19.9544 9.39062 19.9765 9.66314C20.0009 9.96481 20 10.3326 20 10.7597V13.5507C20 13.9778 20.0009 14.3456 19.9765 14.6472C19.9544 14.9197 19.9087 15.1905 19.7974 15.4523L19.7459 15.5638C19.5505 15.9505 19.2546 16.2711 18.895 16.4935L18.7368 16.5826C18.45 16.7299 18.1513 16.7853 17.847 16.8103C17.5509 16.8347 17.1892 16.8338 16.7646 16.8338H14.0628L13.428 17.5957C12.449 18.7707 11.1882 19.5283 9.77937 19.4992C8.36694 19.4699 6.99374 18.6539 5.78353 17.098L5.7573 17.0643L5.7347 17.0278C5.66435 16.9132 5.53319 16.8338 5.38204 16.8338H3.23538C2.81083 16.8338 2.44908 16.8347 2.153 16.8103C1.88668 16.7884 1.62436 16.7438 1.37083 16.6341L1.26323 16.5826C0.886162 16.3889 0.56784 16.0929 0.34452 15.726L0.254096 15.5638C0.104486 15.2676 0.0487387 14.9585 0.023515 14.6472C0.0113011 14.4964 0.00561709 14.3289 0.00271748 14.1458L4.7543e-06 13.5507V10.7597C4.44919e-06 10.3326 -0.000928588 9.96481 0.023515 9.66314C0.0487466 9.35179 0.10438 9.04281 0.254096 8.74654L0.34452 8.58534C0.567857 8.21821 0.88601 7.92156 1.26323 7.72779L1.37083 7.67718C1.62442 7.56747 1.88661 7.52199 2.153 7.50005C2.44908 7.47567 2.81085 7.47662 3.23538 7.47662H3.50484C3.73515 7.47661 3.78547 7.47523 3.83037 7.46912L3.97685 7.43538L4.06276 7.4007C4.10537 7.38128 4.16859 7.35088 4.27254 7.30042L7.09106 5.60918L7.16159 5.57918C7.51592 5.45065 7.91402 5.61941 8.07668 5.97937C8.24986 6.36328 8.08985 6.82023 7.71951 7L4.90099 8.69031C4.81383 8.73262 4.73389 8.77229 4.65594 8.80746L4.42355 8.89931C4.35846 8.92062 4.29211 8.93928 4.22552 8.9546L4.02387 8.99115C3.86068 9.01341 3.69846 9.01177 3.50484 9.01177H3.23538C2.78724 9.01177 2.49433 9.01305 2.27055 9.03145C2.16239 9.04036 2.08632 9.05226 2.03183 9.06519L1.92061 9.10362C1.80384 9.16366 1.70588 9.24972 1.63216 9.35198L1.56705 9.45882C1.54682 9.49885 1.5174 9.57862 1.50014 9.79153C1.48211 10.0141 1.48115 10.3066 1.48115 10.7597V13.5507L1.48386 14.1215C1.48627 14.2789 1.49113 14.4076 1.50014 14.5188C1.5174 14.7318 1.54682 14.8115 1.56705 14.8515L1.63216 14.9593C1.70583 15.0614 1.80404 15.1468 1.92061 15.2068L2.03183 15.2452C2.08633 15.2581 2.16234 15.2709 2.27055 15.2799C2.49433 15.2983 2.78727 15.2986 3.23538 15.2986H5.38204C6.00587 15.2986 6.5945 15.6136 6.94819 16.1477C7.97847 17.4669 8.97246 17.9465 9.8083 17.964C10.6505 17.9815 11.521 17.534 12.3058 16.592L13.1431 15.5882L13.2679 15.4242L13.6133 14.9659C13.7074 14.838 13.7823 14.7311 13.843 14.636C13.9596 14.4532 13.9845 14.3707 13.9922 14.3276L14.004 14.2049C14.0058 14.1224 13.9953 14.0398 13.9714 13.9603L13.9262 13.844C13.9063 13.8026 13.8586 13.7288 13.6965 13.5835C13.6124 13.5081 13.5113 13.4255 13.3864 13.3276L13.0382 13.0474L13.003 13.0202L12.9442 12.9706C12.665 12.7102 12.6155 12.268 12.842 11.9471ZM6.23113 1.17761C6.59007 1.03812 6.98756 1.20596 7.15436 1.55437L7.1851 1.62653L7.8253 3.39693L7.84881 3.4719C7.94455 3.84821 7.75128 4.24603 7.39217 4.38569C7.03321 4.52523 6.63575 4.35735 6.46894 4.00893L6.4382 3.93676L5.79799 2.16637L5.77448 2.09139C5.67875 1.71508 5.87201 1.31726 6.23113 1.17761ZM12.663 1.61716C12.8118 1.22231 13.2414 1.02725 13.6224 1.18135C14.0033 1.33558 14.1915 1.7808 14.0429 2.17574L13.3764 3.94613C13.2277 4.34103 12.7981 4.53605 12.417 4.38194C12.036 4.22776 11.8479 3.78253 11.9966 3.38755L12.663 1.61716ZM9.18166 3.02673V1.26758C9.18166 0.843553 9.51313 0.5 9.92224 0.5C10.3312 0.500117 10.6628 0.843625 10.6628 1.26758V3.02673C10.6628 3.45066 10.3312 3.79419 9.92224 3.79431C9.51314 3.79431 9.18168 3.45074 9.18166 3.02673Z" fill="white"/>
</svg>
