<svg width="32" height="36" viewBox="0 0 32 36" fill="none" xmlns="http://www.w3.org/2000/svg">
<path d="M15.6895 0.0450799C15.9259 -0.0250111 16.1802 -0.0133763 16.4106 0.0800418L30.9995 5.99734L31.1276 6.05853C31.414 6.22058 31.6145 6.50547 31.6681 6.83546L31.772 7.54926C32.2513 11.237 32.0906 16.6779 30.1561 21.9487C28.08 27.6051 23.9447 33.0933 16.3834 35.9305C16.1363 36.0231 15.8639 36.0231 15.6167 35.9305C8.05549 33.0933 3.92019 27.6051 1.84409 21.9487C-0.219369 16.3265 -0.26496 10.5106 0.332026 6.83546L0.364053 6.69755C0.458364 6.38205 0.691064 6.12293 1.00071 5.99734L15.5896 0.0800418L15.6895 0.0450799ZM2.40117 7.78914C1.95333 11.1804 2.09328 16.2828 3.89577 21.1941C5.76012 26.2738 9.38861 31.1199 16.0001 33.7309C22.6116 31.1199 26.24 26.2738 28.1044 21.1941C29.9069 16.2828 30.0459 11.1804 29.598 7.78914L16.0001 2.2739L2.40117 7.78914ZM21.5747 13.0431C21.9777 12.5933 22.6693 12.5554 23.1188 12.9586C23.5683 13.3619 23.6062 14.0539 23.2033 14.5038L16.3883 22.1109C16.1884 22.3341 15.9054 22.4663 15.6061 22.4751C15.3068 22.4838 15.017 22.3685 14.8044 22.1575L10.5448 17.931L11.3154 17.155L12.085 16.3781L15.5265 19.7937L21.5747 13.0431ZM10.539 16.3839C10.9641 15.9553 11.6564 15.9528 12.085 16.3781L10.5448 17.931C10.1165 17.5056 10.114 16.8128 10.539 16.3839Z" fill="black"/>
</svg>
