<svg width="84" height="40" viewBox="0 0 84 40" fill="none" xmlns="http://www.w3.org/2000/svg">
<path d="M36.3998 33.5961H29.5952L33.8513 6.49133H40.6555L36.3998 33.5961Z" fill="#9A9A9A"/>
<path d="M61.0669 7.15396C59.7248 6.60553 57.596 6 54.9638 6C48.244 6 43.512 9.69067 43.483 14.9672C43.4272 18.8602 46.871 21.0225 49.4466 22.3206C52.0792 23.647 52.9741 24.5127 52.9741 25.6951C52.9473 27.5109 50.8468 28.3479 48.8877 28.3479C46.171 28.3479 44.7154 27.9164 42.5033 26.9061L41.6072 26.473L40.655 32.5575C42.251 33.3063 45.1913 33.9709 48.244 34C55.3839 34 60.0321 30.3665 60.0872 24.7435C60.1144 21.6579 58.2959 19.2937 54.3755 17.3617C51.9955 16.1215 50.538 15.2853 50.538 14.0164C50.5659 12.8628 51.7708 11.6813 54.4573 11.6813C56.6695 11.6234 58.2948 12.171 59.5261 12.7191L60.1415 13.0069L61.0669 7.15396Z" fill="#9A9A9A"/>
<path d="M70.1111 23.9938C70.6715 22.4367 72.8278 16.4101 72.8278 16.4101C72.7995 16.468 73.387 14.8243 73.723 13.8152L74.1986 16.1507C74.1986 16.1507 75.4872 22.6387 75.767 23.9938C74.7035 23.9938 71.4551 23.9938 70.1111 23.9938ZM78.5105 6.49133H73.2471C71.624 6.49133 70.3909 6.98112 69.6906 8.74023L59.5833 33.5957H66.7231C66.7231 33.5957 67.8986 30.2503 68.1512 29.5298C68.9345 29.5298 75.8801 29.5298 76.8878 29.5298C77.0831 30.4814 77.6997 33.5957 77.6997 33.5957H84.0001L78.5105 6.49133Z" fill="#9A9A9A"/>
<path d="M23.9118 6.49133L17.2478 24.9742L16.5196 21.2256C15.2876 16.9003 11.4237 12.2009 7.11182 9.86429L13.2157 33.5673H20.4114L31.107 6.49133H23.9118Z" fill="#9A9A9A"/>
<path d="M11.0599 6.49133H0.112002L0 7.03899C8.54006 9.28827 14.196 14.7101 16.5197 21.2268L14.1398 8.76974C13.748 7.03861 12.5439 6.54844 11.0599 6.49133Z" fill="#D6D6D6"/>
</svg>
