<svg width="40" height="40" viewBox="0 0 40 40" fill="none" xmlns="http://www.w3.org/2000/svg">
<g clip-path="url(#clip0_928_5832)">
<mask id="mask0_928_5832" style="mask-type:luminance" maskUnits="userSpaceOnUse" x="-9" y="-9" width="58" height="58">
<path d="M-8.80347 -8.84986H48.8391V48.7927H-8.80347V-8.84986Z" fill="white"/>
</mask>
<g mask="url(#mask0_928_5832)">
<path d="M19.9999 39.9237C31.0036 39.9237 39.9237 31.0036 39.9237 19.9999C39.9237 8.99637 31.0036 0.0762093 19.9999 0.0762093C8.99633 0.0762093 0.0761719 8.99637 0.0761719 19.9999C0.0761719 31.0036 8.99633 39.9237 19.9999 39.9237Z" fill="#9A9A9A"/>
<path d="M9.61329 19.9424L13.0134 16.5339C13.1262 16.419 13.1891 16.2669 13.1891 16.1055C13.1891 15.7693 12.9158 15.4963 12.5796 15.4963C12.4158 15.4963 12.2623 15.5605 12.1465 15.6777C12.1462 15.6784 8.74939 19.0732 8.74939 19.0732L5.33711 15.6726C5.22181 15.5589 5.06902 15.4963 4.90702 15.4963C4.57122 15.4963 4.29785 15.7692 4.29785 16.1051C4.29785 16.2689 4.36326 16.4226 4.48066 16.5385L7.88034 19.9377L4.48243 23.342C4.36299 23.4596 4.29785 23.6136 4.29785 23.7782C4.29785 24.1144 4.57122 24.387 4.90702 24.387C5.06929 24.387 5.22221 24.3241 5.33711 24.2091L8.7441 20.8067L12.1382 24.1967C12.2585 24.3212 12.4138 24.3875 12.5796 24.3875C12.9154 24.3875 13.1887 24.1144 13.1887 23.7782C13.1887 23.616 13.1259 23.4636 13.0115 23.3487L9.61329 19.9424Z" fill="white"/>
<path d="M29.8267 19.9413C29.8267 20.5518 30.323 21.0483 30.9342 21.0483C31.544 21.0483 32.0406 20.5518 32.0406 19.9413C32.0406 19.3307 31.544 18.8342 30.9342 18.8342C30.323 18.8342 29.8267 19.3307 29.8267 19.9413Z" fill="white"/>
<path d="M27.727 19.9419C27.727 18.1741 29.1651 16.7357 30.9331 16.7357C32.7002 16.7357 34.1386 18.1741 34.1386 19.9419C34.1386 21.7092 32.7002 23.147 30.9331 23.147C29.1651 23.147 27.727 21.7092 27.727 19.9419ZM26.4658 19.9419C26.4658 22.4047 28.4698 24.4084 30.9331 24.4084C33.3963 24.4084 35.4013 22.4047 35.4013 19.9419C35.4013 17.4787 33.3963 15.4744 30.9331 15.4744C28.4698 15.4744 26.4658 17.4787 26.4658 19.9419Z" fill="white"/>
<path d="M26.1487 15.5508L25.9613 15.5503C25.3986 15.5503 24.856 15.7277 24.4027 16.077C24.343 15.8037 24.0987 15.5981 23.8077 15.5981C23.4728 15.5981 23.2044 15.8664 23.2036 16.202C23.2036 16.2032 23.2056 23.726 23.2056 23.726C23.2065 24.061 23.4798 24.3333 23.8149 24.3333C24.1499 24.3333 24.4231 24.061 24.424 23.7252C24.424 23.7237 24.4243 19.0989 24.4243 19.0989C24.4243 17.557 24.5652 16.9343 25.8861 16.7692C26.0082 16.754 26.1409 16.7564 26.1415 16.7564C26.5029 16.744 26.7597 16.4957 26.7597 16.16C26.7597 15.8241 26.4856 15.5508 26.1487 15.5508Z" fill="white"/>
<path d="M14.4511 19.2064C14.4511 19.1898 14.4524 19.1724 14.4532 19.1553C14.8069 17.7571 16.0732 16.7224 17.5812 16.7224C19.1075 16.7224 20.3854 17.7825 20.721 19.2064H14.4511ZM21.9685 19.0914C21.706 17.8485 21.0255 16.8275 19.9893 16.1718C18.4746 15.2102 16.4745 15.2634 15.0114 16.3038C13.818 17.1528 13.1292 18.5416 13.1292 19.9723C13.1292 20.331 13.1724 20.6931 13.2624 21.0495C13.713 22.8221 15.2369 24.164 17.0538 24.3864C17.593 24.4517 18.1177 24.4205 18.6612 24.2798C19.1281 24.1661 19.58 23.9768 19.9963 23.71C20.4284 23.4322 20.7894 23.0659 21.139 22.6274C21.1461 22.6193 21.1532 22.6122 21.1603 22.6037C21.4029 22.3028 21.3579 21.8748 21.0913 21.6705C20.8664 21.4981 20.4888 21.4282 20.1917 21.8087C20.1279 21.8997 20.0566 21.9933 19.9782 22.0869C19.742 22.3479 19.4489 22.6008 19.0977 22.797C18.6508 23.0357 18.1415 23.1722 17.6001 23.1752C15.8281 23.1555 14.8799 21.9186 14.5426 21.0357C14.4837 20.8709 14.4383 20.6998 14.4067 20.5237C14.4025 20.4908 14.3995 20.459 14.3983 20.4297C14.7646 20.4297 20.7572 20.4287 20.7572 20.4287C21.6289 20.4104 22.0981 19.7951 21.9685 19.0914Z" fill="white"/>
</g>
</g>
<defs>
<clipPath id="clip0_928_5832">
<rect width="40" height="40" fill="white"/>
</clipPath>
</defs>
</svg>
